<?xml version="1.0" standalone="no"?>
<!DOCTYPE svg PUBLIC "-//W3C//DTD SVG 1.1//EN" "http://www.w3.org/Graphics/SVG/1.1/DTD/svg11.dtd" >
<svg xmlns="http://www.w3.org/2000/svg">
<metadata>Generated by IcoMoon</metadata>
<defs>
<font id="icomoon" horiz-adv-x="1024">
<font-face units-per-em="1024" ascent="960" descent="-64" />
<missing-glyph horiz-adv-x="1024" />
<glyph unicode="&#x20;" horiz-adv-x="512" d="" />
<glyph unicode="&#xe800;" glyph-name="android-wordmark" d="M109.568 102.912h64.512v-139.264h-27.648v111.616h-31.744c-13.312 0-21.504 0-22.528-1.024-8.192-3.072-15.36-7.168-21.504-14.336-6.144-9.216-9.216-18.432-9.216-26.624 0-11.264 4.096-21.504 12.288-29.696 6.144-6.144 11.264-9.216 15.36-10.24 4.096-2.048 10.24-3.072 20.48-3.072h19.456v-26.624h-23.552c-17.408 0-31.744 4.096-43.008 13.312-9.216 7.168-15.36 13.312-17.408 18.432-7.168 11.264-11.264 23.552-11.264 35.84v4.096c0 16.384 6.144 31.744 18.432 46.080 8.192 7.168 14.336 11.264 19.456 13.312 3.072 2.048 8.192 4.096 14.336 6.144 5.12 1.024 13.312 2.048 23.552 2.048zM314.368 75.264c3.072-4.096 5.12-7.168 6.144-10.24 2.048-3.072 4.096-7.168 5.12-12.288 2.048-6.144 3.072-15.36 3.072-26.624v-62.464h-27.648v65.536c0 22.528-10.24 36.864-30.72 45.056-4.096 1.024-8.192 2.048-11.264 2.048-4.096 0-8.192-1.024-12.288-2.048-20.48-8.192-30.72-22.528-30.72-45.056v-65.536h-27.648v62.464c0 11.264 1.024 20.48 3.072 26.624 1.024 5.12 3.072 9.216 5.12 12.288 1.024 3.072 3.072 6.144 6.144 10.24 15.36 18.432 33.792 27.648 56.32 27.648 21.504 0 40.96-9.216 55.296-27.648zM393.216 102.912c18.432 0 29.696 0 31.744-1.024 8.192-1.024 16.384-4.096 25.6-10.24 6.144-3.072 11.264-8.192 17.408-14.336 10.24-13.312 15.36-27.648 15.36-44.032 0-10.24-2.048-19.456-5.12-27.648-8.192-16.384-19.456-28.672-36.864-35.84-8.192-4.096-19.456-6.144-35.84-6.144h-62.464v26.624h65.536c7.168 0 12.288 1.024 16.384 2.048 10.24 3.072 17.408 8.192 21.504 15.36 6.144 8.192 9.216 16.384 9.216 24.576s-3.072 16.384-7.168 24.576c-3.072 4.096-7.168 8.192-10.24 10.24-7.168 6.144-17.408 8.192-29.696 8.192h-65.536v27.648h50.176zM497.664 102.912h90.112c15.36 0 27.648-5.12 36.864-14.336 4.096-4.096 6.144-7.168 8.192-11.264 3.072-6.144 5.12-13.312 5.12-20.48v-3.072c0-10.24-4.096-20.48-13.312-30.72-5.12-5.12-11.264-8.192-15.36-10.24 11.264-12.288 17.408-28.672 17.408-49.152h-27.648v2.048c0 15.36-6.144 27.648-18.432 35.84-7.168 5.12-16.384 8.192-27.648 8.192h-55.296v26.624h91.136c10.24 0 17.408 5.12 20.48 14.336 0 2.048 1.024 4.096 1.024 5.12 0 6.144-2.048 10.24-7.168 15.36-4.096 3.072-8.192 4.096-12.288 4.096 0 0-1.024 1.024-4.096 1.024h-89.088v26.624zM721.92 102.912h1.024c21.504 0 39.936-9.216 55.296-26.624 9.216-13.312 14.336-27.648 14.336-43.008v-1.024c0-21.504-9.216-38.912-26.624-54.272-13.312-9.216-27.648-14.336-43.008-14.336h-1.024c-21.504 0-39.936 8.192-54.272 25.6-5.12 8.192-9.216 14.336-11.264 20.48-3.072 8.192-4.096 15.36-4.096 22.528v1.024c0 21.504 9.216 38.912 26.624 54.272 11.264 8.192 21.504 13.312 31.744 14.336 3.072 1.024 7.168 1.024 11.264 1.024zM679.936 33.28c0-12.288 5.12-22.528 14.336-31.744 8.192-7.168 17.408-11.264 26.624-11.264h3.072c7.168 0 15.36 3.072 22.528 8.192 8.192 5.12 13.312 13.312 16.384 22.528 1.024 2.048 1.024 6.144 2.048 12.288 0 11.264-5.12 21.504-14.336 30.72-8.192 8.192-17.408 12.288-27.648 12.288-12.288 0-23.552-5.12-32.768-15.36-4.096-5.12-6.144-10.24-7.168-13.312-2.048-5.12-3.072-10.24-3.072-14.336zM806.912 102.912h27.648v-139.264h-27.648v139.264zM900.096 102.912c18.432 0 29.696 0 31.744-1.024 8.192-1.024 16.384-4.096 25.6-10.24 6.144-3.072 11.264-8.192 17.408-14.336 10.24-13.312 15.36-27.648 15.36-44.032 0-10.24-2.048-19.456-5.12-27.648-8.192-16.384-19.456-28.672-36.864-35.84-7.168-4.096-19.456-6.144-35.84-6.144h-62.464v26.624h65.536c7.168 0 12.288 1.024 16.384 2.048 10.24 3.072 17.408 8.192 21.504 15.36 6.144 8.192 9.216 16.384 9.216 24.576s-3.072 16.384-7.168 24.576c-3.072 4.096-7.168 8.192-10.24 10.24-7.168 6.144-17.408 8.192-29.696 8.192h-65.536v27.648h50.176zM233.472 669.184c-26.624 0-47.104-21.504-47.104-47.104v-199.68c0-26.624 20.48-47.104 47.104-47.104s48.128 20.48 48.128 47.104v199.68c0 25.6-21.504 47.104-48.128 47.104zM617.472 848.384l32.768 60.416c2.048 3.072 1.024 7.168-3.072 9.216-3.072 1.024-7.168 0-8.192-3.072l-33.792-61.44c-28.672 12.288-59.392 19.456-93.184 19.456s-64.512-7.168-93.184-19.456l-33.792 61.44c-1.024 3.072-5.12 4.096-8.192 2.048-3.072-1.024-5.12-5.12-3.072-8.192l33.792-60.416c-65.536-33.792-109.568-98.304-109.568-172.032h428.032c0 73.728-44.032 138.24-108.544 172.032zM414.72 754.176c-10.24 0-18.432 8.192-18.432 18.432 0 9.216 8.192 17.408 18.432 17.408 9.216 0 17.408-8.192 17.408-17.408 0-10.24-8.192-18.432-17.408-18.432zM609.28 754.176c-9.216 0-17.408 8.192-17.408 18.432 0 9.216 8.192 17.408 17.408 17.408 10.24 0 18.432-8.192 18.432-17.408 0-10.24-8.192-18.432-18.432-18.432zM300.032 659.968v-308.224c0-28.672 22.528-51.2 50.176-51.2h34.816v-105.472c0-25.6 21.504-47.104 47.104-47.104 26.624 0 48.128 21.504 48.128 47.104v105.472h63.488v-105.472c0-25.6 21.504-47.104 48.128-47.104s47.104 21.504 47.104 47.104v105.472h34.816c27.648 0 51.2 23.552 51.2 51.2v308.224h-424.96zM837.632 622.080c0 25.6-20.48 47.104-47.104 47.104s-47.104-21.504-47.104-47.104v-199.68c0-26.624 20.48-47.104 47.104-47.104s47.104 20.48 47.104 47.104v199.68z" />
<glyph unicode="&#xe801;" glyph-name="android" d="M167.936 615.936c-32.768 0-58.368-26.624-58.368-58.368v-245.76c0-32.768 26.624-59.392 58.368-59.392 32.768 0 59.392 26.624 59.392 59.392v245.76c0 31.744-26.624 58.368-59.392 58.368zM642.048 837.12l40.96 74.752c2.048 4.096 0 8.192-4.096 11.264-3.072 2.048-8.192 0-10.24-4.096l-41.984-74.752c-34.816 15.36-73.728 23.552-114.688 23.552s-79.872-8.192-114.688-23.552l-41.984 74.752c-2.048 4.096-7.168 6.144-10.24 4.096-4.096-3.072-6.144-7.168-4.096-11.264l40.96-74.752c-79.872-41.984-134.144-120.832-134.144-211.968h528.384c0 91.136-54.272 169.984-134.144 211.968zM391.168 721.408c-11.264 0-21.504 9.216-21.504 21.504s9.216 22.528 21.504 22.528c12.288 0 22.528-10.24 22.528-22.528s-10.24-21.504-22.528-21.504zM632.832 721.408c-12.288 0-22.528 9.216-22.528 21.504s10.24 22.528 22.528 22.528c12.288 0 21.504-10.24 21.504-22.528 0-11.264-9.216-21.504-21.504-21.504zM249.856 604.672v-380.928c0-34.816 27.648-62.464 62.464-62.464h43.008v-130.048c0-32.768 25.6-59.392 58.368-59.392s58.368 26.624 58.368 59.392v130.048h79.872v-130.048c0-32.768 26.624-59.392 58.368-59.392 32.768 0 59.392 26.624 59.392 59.392l-1.024 130.048h43.008c34.816 0 63.488 27.648 63.488 62.464l-1.024 380.928h-524.288zM914.432 557.568c0 32.768-25.6 58.368-58.368 58.368s-58.368-26.624-58.368-58.368v-245.76c0-32.768 25.6-59.392 58.368-59.392s58.368 26.624 58.368 59.392v245.76z" />
<glyph unicode="&#xe802;" glyph-name="apple" d="M783.36 417.28c1.024-150.528 132.096-200.704 133.12-201.728-1.024-3.072-20.48-70.656-68.608-141.312-40.96-60.416-83.968-120.832-152.576-121.856-66.56-1.024-87.040 38.912-163.84 38.912-75.776 0-99.328-37.888-162.816-39.936-65.536-3.072-114.688 65.536-156.672 125.952-84.992 122.88-150.528 348.16-63.488 500.736 44.032 74.752 121.856 122.88 205.824 123.904 64.512 2.048 124.928-43.008 164.864-43.008 38.912 0 112.64 53.248 189.44 46.080 32.768-2.048 123.904-13.312 182.272-99.328-5.12-2.048-108.544-63.488-107.52-188.416zM658.432 785.92c34.816 41.984 58.368 101.376 51.2 158.72-50.176-2.048-110.592-32.768-146.432-74.752-31.744-37.888-60.416-97.28-52.224-153.6 55.296-5.12 112.64 27.648 147.456 69.632z" />
<glyph unicode="&#xe803;" glyph-name="chrome-wordmark" d="M664.576 547.328c0-81.92-66.56-148.48-148.48-148.48s-148.48 66.56-148.48 148.48c0 81.92 66.56 148.48 148.48 148.48s148.48-66.56 148.48-148.48zM512 720.384h361.472c-64.512 135.168-200.704 224.256-357.376 224.256-126.976 0-240.64-58.368-313.344-151.552l135.168-235.52c7.168 91.136 77.824 162.816 174.080 162.816zM458.752 152.064l137.216 237.568c-23.552-12.288-51.2-19.456-79.872-19.456-76.8 0-141.312 49.152-166.912 116.736l-164.864 282.624c-41.984-63.488-67.584-140.288-67.584-222.208 0-200.704 148.48-367.616 342.016-395.264zM886.784 695.808h-274.432c48.128-31.744 80.896-86.016 80.896-148.48 0-30.72-8.192-59.392-21.504-84.992v0l-182.272-313.344c9.216-1.024 17.408-1.024 26.624-1.024 220.16 0 399.36 179.2 399.36 399.36 0 52.224-10.24 93.184-28.672 148.48zM189.44-38.4c-6.144-3.072-20.48-8.192-37.888-8.192-39.936 0-65.536 27.648-65.536 67.584 0 40.96 27.648 70.656 70.656 70.656 14.336 0 26.624-4.096 32.768-7.168l-5.12-18.432c-6.144 3.072-14.336 6.144-27.648 6.144-30.72 0-47.104-22.528-47.104-50.176 0-29.696 20.48-49.152 46.080-49.152 13.312 0 22.528 3.072 29.696 6.144l4.096-17.408zM217.088 150.016h24.576v-81.92c4.096 6.144 10.24 12.288 17.408 16.384s15.36 7.168 24.576 7.168c17.408 0 46.080-11.264 46.080-56.32v-78.848h-24.576v75.776c0 21.504-7.168 38.912-29.696 38.912-16.384 0-27.648-10.24-32.768-23.552-1.024-3.072-1.024-7.168-1.024-11.264v-79.872h-24.576v193.536zM368.64 47.616c0 15.36 0 28.672-1.024 40.96h20.48l1.024-26.624h1.024c6.144 18.432 20.48 29.696 36.864 29.696 2.048 0 4.096 0 6.144-1.024v-22.528c-2.048 1.024-4.096 1.024-8.192 1.024-16.384 0-28.672-13.312-31.744-30.72 0-3.072-1.024-7.168-1.024-11.264v-70.656h-23.552v91.136zM574.464 24.064c0-49.152-34.816-70.656-65.536-70.656-35.84 0-63.488 26.624-63.488 68.608 0 43.008 28.672 69.632 65.536 69.632 37.888 0 63.488-27.648 63.488-67.584zM470.016 22.016c0-28.672 16.384-50.176 39.936-50.176 22.528 0 39.936 21.504 39.936 51.2 0 22.528-11.264 50.176-39.936 50.176-27.648 0-39.936-25.6-39.936-51.2zM604.16 52.736c0 14.336 0 24.576-1.024 35.84h21.504l1.024-21.504h1.024c7.168 12.288 19.456 24.576 40.96 24.576 18.432 0 31.744-11.264 36.864-26.624h1.024c4.096 7.168 9.216 13.312 15.36 17.408 7.168 5.12 16.384 9.216 28.672 9.216 17.408 0 43.008-11.264 43.008-57.344v-77.824h-23.552v74.752c0 25.6-9.216 40.96-27.648 40.96-14.336 0-24.576-10.24-28.672-21.504-1.024-4.096-2.048-8.192-2.048-12.288v-81.92h-23.552v78.848c0 21.504-9.216 36.864-27.648 36.864-14.336 0-25.6-12.288-29.696-24.576-1.024-3.072-2.048-7.168-2.048-11.264v-79.872h-23.552v96.256zM844.8 17.92c1.024-31.744 21.504-45.056 45.056-45.056 17.408 0 27.648 3.072 36.864 6.144l4.096-16.384c-8.192-4.096-22.528-9.216-44.032-9.216-40.96 0-64.512 27.648-64.512 66.56 0 39.936 23.552 71.68 61.44 71.68 43.008 0 54.272-37.888 54.272-62.464 0-5.12 0-8.192 0-11.264h-93.184zM915.456 35.328c0 15.36-6.144 38.912-33.792 38.912-24.576 0-34.816-22.528-36.864-38.912h70.656z" />
<glyph unicode="&#xe804;" glyph-name="ie10" d="M1008.64 425.472c0 78.848-20.48 152.576-55.296 216.064 151.552 344.064-162.816 293.888-180.224 289.792-66.56-12.288-129.024-33.792-185.344-60.416-8.192 1.024-17.408 1.024-25.6 1.024-211.968 0-390.144-148.48-435.2-346.112 111.616 124.928 190.464 176.128 237.568 195.584-8.192-6.144-15.36-13.312-22.528-19.456l-7.168-7.168c-5.12-5.12-9.216-9.216-14.336-14.336-2.048-2.048-5.12-5.12-8.192-8.192-4.096-4.096-8.192-8.192-12.288-12.288l-8.192-9.216c-3.072-4.096-7.168-8.192-11.264-11.264l-8.192-10.24c-3.072-3.072-7.168-7.168-10.24-11.264-3.072-3.072-5.12-6.144-8.192-10.24-3.072-3.072-6.144-7.168-9.216-11.264-3.072-3.072-6.144-6.144-8.192-9.216-3.072-4.096-6.144-8.192-9.216-11.264-3.072-4.096-5.12-7.168-8.192-10.24l-7.168-10.24c-3.072-4.096-6.144-7.168-9.216-11.264l-5.12-8.192c-18.432-23.552-33.792-47.104-49.152-70.656v0c-3.072-6.144-7.168-11.264-11.264-17.408v-1.024c-4.096-6.144-7.168-11.264-10.24-17.408h-1.024c-9.216-15.36-17.408-30.72-25.6-44.032-39.936-73.728-59.392-123.904-60.416-126.976-126.976-454.656 269.312-263.168 324.608-234.496 59.392-28.672 126.976-47.104 197.632-47.104 194.56 0 359.424 126.976 420.864 294.912h-234.496c-34.816-56.32-101.376-96.256-178.176-96.256-112.64 0-203.776 88.064-203.776 192.512h638.976c2.048 16.384 3.072 37.888 3.072 57.344zM108.544 25.088c-31.744 32.768-36.864 110.592 31.744 252.928 34.816-100.352 104.448-184.32 194.56-237.568-45.056-24.576-163.84-79.872-226.304-15.36zM365.568 487.936c3.072 104.448 92.16 184.32 201.728 184.32s198.656-79.872 201.728-184.32h-403.456zM723.968 841.216c40.96 20.48 143.36 62.464 201.728 23.552 37.888-25.6 69.632-66.56 16.384-203.776-51.2 80.896-126.976 145.408-218.112 180.224z" />
<glyph unicode="&#xe805;" glyph-name="safari" d="M512 947.712c-275.456 0-499.712-223.232-499.712-499.712s224.256-499.712 499.712-499.712 499.712 224.256 499.712 499.712-223.232 499.712-499.712 499.712zM960.512 484.864l-40.96-3.072v8.192l39.936 3.072 1.024-8.192zM960.512 456.192v-8.192h-72.704v8.192h72.704zM955.392 522.752l-72.704-12.288-2.048 8.192 72.704 12.288 2.048-8.192zM947.2 561.664l-38.912-10.24-3.072 8.192 39.936 10.24 2.048-8.192zM935.936 599.552l-68.608-25.6-2.048 7.168 68.608 25.6 2.048-7.168zM921.6 636.416l-35.84-17.408-3.072 7.168 35.84 17.408 3.072-7.168zM903.168 670.208l-63.488-36.864-4.096 7.168 63.488 36.864 4.096-7.168zM878.592 710.144l5.12-6.144-32.768-23.552-5.12 7.168 32.768 22.528zM859.136 735.744l-56.32-48.128-5.12 7.168 56.32 47.104 5.12-6.144zM803.84 791.040l-47.104-56.32-6.144 4.096 47.104 57.344 6.144-5.12zM765.952 819.712l7.168-4.096-23.552-32.768-6.144 4.096 22.528 32.768zM740.352 837.12l-35.84-64.512-7.168 4.096 35.84 64.512 7.168-4.096zM698.368 858.624l7.168-3.072-16.384-35.84-7.168 3.072 16.384 35.84zM662.528 872.96l7.168-2.048-25.6-69.632-7.168 3.072 25.6 68.608zM624.64 885.248l8.192-3.072-10.24-38.912-8.192 2.048 10.24 39.936zM586.752 892.416l8.192-1.024-13.312-72.704-8.192 1.024 13.312 72.704zM546.816 897.536l8.192-1.024-3.072-39.936-8.192 1.024 3.072 39.936zM503.808 896.512h8.192v-72.704h-8.192v72.704zM477.184 897.536l3.072-39.936-8.192-1.024-3.072 39.936 8.192 1.024zM437.248 892.416l13.312-72.704-8.192-1.024-12.288 72.704 7.168 1.024zM399.36 885.248l10.24-39.936-8.192-2.048-9.216 38.912 7.168 3.072zM361.472 872.96l25.6-68.608-7.168-3.072-25.6 69.632 7.168 2.048zM325.632 858.624l16.384-35.84-7.168-3.072-16.384 35.84 7.168 3.072zM290.816 841.216l36.864-64.512-7.168-4.096-36.864 64.512 7.168 4.096zM258.048 819.712l22.528-32.768-6.144-4.096-23.552 32.768 7.168 4.096zM226.304 796.16l47.104-57.344-6.144-4.096-47.104 56.32 6.144 5.12zM196.608 770.56l28.672-27.648-6.144-7.168-27.648 28.672 5.12 6.144zM169.984 741.888l56.32-47.104-5.12-7.168-56.32 48.128 5.12 6.144zM145.408 710.144l32.768-22.528-4.096-7.168-32.768 23.552 4.096 6.144zM124.928 677.376l63.488-36.864-4.096-7.168-64.512 36.864 5.12 7.168zM106.496 643.584l35.84-17.408-3.072-7.168-35.84 17.408 3.072 7.168zM91.136 606.72l68.608-25.6-2.048-7.168-69.632 25.6 3.072 7.168zM78.848 569.856l38.912-10.24-2.048-8.192-39.936 10.24 3.072 8.192zM69.632 530.944l72.704-12.288-1.024-8.192-73.728 12.288 2.048 8.192zM64.512 492.032l39.936-3.072-1.024-8.192-39.936 3.072 1.024 8.192zM136.192 456.192v-8.192h-71.68v8.192h71.68zM64.512 413.184l39.936 4.096v-8.192l-39.936-3.072v7.168zM68.608 375.296l72.704 12.288 2.048-7.168-72.704-13.312-2.048 8.192zM76.8 336.384l38.912 11.264 3.072-8.192-39.936-10.24-2.048 7.168zM88.064 299.52l68.608 25.6 3.072-7.168-69.632-25.6-2.048 7.168zM102.4 262.656l35.84 16.384 3.072-7.168-35.84-16.384-3.072 7.168zM120.832 226.816l64.512 36.864 3.072-7.168-63.488-36.864-4.096 7.168zM145.408 187.904l-4.096 6.144 32.768 23.552 4.096-6.144-32.768-23.552zM221.184 210.432l5.12-6.144-56.32-47.104-5.12 6.144 56.32 47.104zM220.16 107.008l47.104 57.344 6.144-5.12-47.104-56.32-6.144 4.096zM258.048 78.336l-7.168 5.12 23.552 32.768 6.144-5.12-22.528-32.768zM283.648 61.952l36.864 63.488 7.168-4.096-36.864-63.488-7.168 4.096zM325.632 40.448l-7.168 3.072 16.384 35.84 7.168-3.072-16.384-35.84zM361.472 25.088l-7.168 2.048 25.6 68.608 7.168-2.048-25.6-68.608zM399.36 13.824l-8.192 2.048 10.24 38.912 8.192-2.048-10.24-38.912zM437.248 5.632l-7.168 1.024 12.288 73.728 8.192-2.048-13.312-72.704zM477.184 0.512l-8.192 1.024 3.072 39.936 8.192-1.024-3.072-39.936zM512-0.512h-8.192v72.704h8.192v-72.704zM546.816 0.512l-3.072 39.936 8.192 1.024 3.072-39.936-8.192-1.024zM167.936 105.984l302.080 384 384 302.080-294.912-391.168-391.168-294.912zM586.752 5.632l-13.312 72.704 8.192 2.048 13.312-73.728-8.192-1.024zM624.64 13.824l-10.24 38.912 8.192 2.048 9.216-38.912-7.168-2.048zM662.528 25.088l-25.6 68.608 7.168 2.048 25.6-68.608-7.168-2.048zM698.368 40.448l-16.384 35.84 7.168 3.072 16.384-35.84-7.168-3.072zM733.184 57.856l-35.84 63.488 7.168 4.096 35.84-63.488-7.168-4.096zM765.952 78.336l-22.528 32.768 6.144 5.12 23.552-32.768-7.168-5.12zM797.696 101.888l-47.104 56.32 6.144 5.12 47.104-57.344-6.144-4.096zM827.392 128.512l-27.648 27.648 5.12 5.12 27.648-27.648-5.12-5.12zM854.016 157.184l-56.32 47.104 5.12 6.144 56.32-47.104-5.12-6.144zM878.592 187.904l-32.768 23.552 5.12 6.144 32.768-23.552-5.12-6.144zM899.072 220.672l-63.488 36.864 4.096 7.168 63.488-36.864-4.096-7.168zM917.504 255.488l-35.84 16.384 3.072 7.168 35.84-16.384-3.072-7.168zM932.864 291.328l-68.608 25.6 2.048 7.168 68.608-25.6-2.048-7.168zM945.152 329.216l-38.912 10.24 3.072 8.192 38.912-11.264-3.072-7.168zM954.368 367.104l-72.704 13.312 2.048 7.168 72.704-12.288-2.048-8.192zM960.512 406.016l-40.96 3.072 1.024 8.192 39.936-4.096v-7.168z" />
<glyph unicode="&#xe806;" glyph-name="safari-wordmark" d="M262.144 61.952c-26.624 11.264-38.912 19.456-38.912 37.888 0 13.312 10.24 28.672 36.864 28.672 17.408 0 30.72-5.12 36.864-9.216l7.168 20.48c-9.216 5.12-23.552 10.24-43.008 10.24-37.888 0-62.464-22.528-62.464-53.248 0-27.648 19.456-44.032 51.2-55.296 26.624-10.24 36.864-20.48 36.864-37.888 0-19.456-15.36-32.768-40.96-32.768-17.408 0-33.792 5.12-45.056 12.288l-6.144-20.48c10.24-7.168 30.72-12.288 49.152-12.288 46.080 0 68.608 25.6 68.608 56.32-1.024 26.624-17.408 43.008-50.176 55.296zM440.32 37.376c0 28.672-9.216 57.344-51.2 57.344-17.408 0-33.792-5.12-45.056-12.288l6.144-16.384c10.24 6.144 22.528 10.24 35.84 10.24 28.672 0 30.72-21.504 30.72-32.768v-3.072c-48.128 0-81.92-18.432-81.92-51.2 0-20.48 14.336-40.96 43.008-40.96 19.456 0 34.816 11.264 43.008 19.456h1.024l2.048-15.36h23.552c-2.048 9.216-6.144 21.504-6.144 32.768v52.224zM415.744-0.512c0-3.072 1.024-6.144 0-8.192-4.096-12.288-15.36-23.552-32.768-23.552-12.288 0-24.576 8.192-24.576 24.576 0 26.624 34.816 31.744 58.368 30.72v-23.552zM539.648 138.752c7.168 0 11.264-1.024 15.36-3.072l3.072 19.456c-4.096 2.048-12.288 4.096-21.504 4.096-11.264 0-23.552-4.096-33.792-12.288-11.264-11.264-14.336-29.696-14.336-49.152v-10.24h-24.576v-15.36h24.576v-119.808h23.552v119.808h31.744v15.36h-31.744v11.264c0 21.504 6.144 39.936 27.648 39.936zM663.552 37.376c0 28.672-9.216 57.344-51.2 57.344-17.408 0-33.792-5.12-46.080-12.288l6.144-16.384c10.24 6.144 23.552 10.24 36.864 10.24 28.672 0 30.72-21.504 30.72-32.768v-3.072c-56.32 0-82.944-18.432-82.944-51.2 0-20.48 14.336-40.96 43.008-40.96 20.48 0 34.816 11.264 43.008 19.456h1.024l2.048-15.36h23.552c-2.048 9.216-4.096 21.504-4.096 32.768v52.224zM640-0.512c0-3.072 0-6.144-1.024-8.192-4.096-12.288-15.36-23.552-33.792-23.552-12.288 0-24.576 8.192-24.576 24.576 0 26.624 34.816 31.744 58.368 30.72v-23.552zM730.112 64v0l-1.024 23.552h-22.528c1.024-7.168-2.048-23.552-2.048-39.936v-95.232h32.768v73.728c0 4.096-2.048 8.192-1.024 12.288 3.072 19.456 15.36 32.768 32.768 32.768 3.072 0 8.192 0 8.192-1.024v24.576c0 1.024-5.12 1.024-7.168 1.024-18.432-1.024-33.792-15.36-39.936-31.744zM815.104 146.944c-9.216 0-15.36-8.192-15.36-16.384s6.144-15.36 14.336-15.36c11.264 0 17.408 7.168 16.384 15.36 0 8.192-5.12 16.384-15.36 16.384zM799.744 87.552h24.576v-135.168h-24.576zM512 947.712c-206.848 0-375.808-167.936-375.808-375.808s167.936-375.808 375.808-375.808 375.808 167.936 375.808 375.808-168.96 375.808-375.808 375.808zM848.896 599.552l-30.72-3.072-1.024 6.144 30.72 2.048 1.024-5.12zM847.872 576v-8.192h-56.32v8.192h56.32zM845.824 629.248l-54.272-10.24-1.024 6.144 54.272 9.216 1.024-5.12zM839.68 657.92l-29.696-8.192-1.024 5.12 28.672 8.192 2.048-5.12zM830.464 685.568l-52.224-19.456-2.048 6.144 52.224 19.456 2.048-6.144zM820.224 713.216l-28.672-12.288-2.048 5.12 27.648 13.312 3.072-6.144zM806.912 738.816l-48.128-27.648-3.072 6.144 47.104 27.648 4.096-6.144zM787.456 769.536l3.072-5.12-24.576-17.408-3.072 5.12 24.576 17.408zM773.12 787.968l-43.008-34.816-4.096 4.096 43.008 35.84 4.096-5.12zM731.136 829.952l-34.816-41.984-5.12 4.096 34.816 41.984 5.12-4.096zM703.488 852.48l4.096-4.096-17.408-24.576-4.096 3.072 17.408 25.6zM684.032 863.744l-27.648-48.128-6.144 4.096 28.672 47.104 5.12-3.072zM652.288 881.152l5.12-3.072-12.288-26.624-6.144 2.048 13.312 27.648zM624.64 892.416l6.144-3.072-19.456-51.2-6.144 2.048 19.456 52.224zM596.992 899.584l5.12-1.024-7.168-28.672-6.144 1.024 8.192 28.672zM568.32 906.752l5.12-1.024-9.216-54.272-6.144 1.024 10.24 54.272zM538.624 910.848l5.12-1.024-2.048-30.72-6.144 1.024 3.072 30.72zM503.808 903.68h8.192v-48.128h-8.192v48.128zM485.376 910.848l3.072-30.72-6.144-1.024-2.048 30.72 5.12 1.024zM455.68 906.752l10.24-54.272-6.144-1.024-9.216 54.272 5.12 1.024zM427.008 899.584l8.192-28.672-5.12-1.024-8.192 28.672 5.12 1.024zM399.36 892.416l19.456-52.224-6.144-2.048-19.456 51.2 6.144 3.072zM371.712 881.152l13.312-27.648-6.144-2.048-12.288 26.624 5.12 3.072zM346.112 866.816l27.648-47.104-6.144-4.096-27.648 48.128 6.144 3.072zM320.512 852.48l18.432-25.6-5.12-3.072-18.432 24.576 5.12 4.096zM296.96 834.048l34.816-43.008-4.096-3.072-34.816 41.984 4.096 4.096zM275.456 814.592l21.504-21.504-4.096-4.096-21.504 21.504 4.096 4.096zM254.976 793.088l43.008-35.84-4.096-4.096-43.008 34.816 4.096 5.12zM236.544 769.536l25.6-17.408-4.096-5.12-24.576 17.408 3.072 5.12zM221.184 744.96l48.128-27.648-4.096-5.12-47.104 27.648 3.072 5.12zM206.848 718.336l27.648-12.288-2.048-5.12-27.648 12.288 2.048 5.12zM195.584 691.712l51.2-19.456-2.048-6.144-52.224 19.456 3.072 6.144zM186.368 663.040l28.672-8.192-1.024-5.12-28.672 8.192 1.024 5.12zM180.224 634.368l54.272-9.216-1.024-6.144-54.272 10.24 1.024 5.12zM175.104 605.696l30.72-2.048-1.024-6.144-30.72 2.048 1.024 6.144zM224.256 576v-8.192h-48.128v8.192h48.128zM175.104 546.304l30.72 2.048 1.024-5.12-30.72-2.048-1.024 5.12zM178.176 517.632l54.272 9.216 1.024-5.12-54.272-9.216-1.024 5.12zM185.344 487.936l28.672 8.192 1.024-6.144-28.672-7.168-1.024 5.12zM193.536 460.288l52.224 19.456 2.048-6.144-52.224-19.456-2.048 6.144zM203.776 432.64l27.648 13.312 2.048-6.144-26.624-12.288-3.072 5.12zM218.112 406.016l47.104 28.672 4.096-6.144-48.128-27.648-3.072 5.12zM236.544 377.344l-3.072 4.096 24.576 17.408 4.096-4.096-25.6-17.408zM293.888 393.728l4.096-5.12-43.008-34.816-4.096 5.12 43.008 34.816zM292.864 315.904l34.816 43.008 5.12-4.096-35.84-43.008-4.096 4.096zM320.512 294.4l-4.096 3.072 17.408 24.576 5.12-3.072-18.432-24.576zM339.968 282.112l27.648 47.104 6.144-3.072-27.648-48.128-6.144 4.096zM371.712 265.728l-5.12 2.048 12.288 27.648 6.144-3.072-13.312-26.624zM399.36 254.464l-6.144 2.048 19.456 52.224 6.144-2.048-19.456-52.224zM427.008 245.248l-5.12 2.048 8.192 28.672 5.12-1.024-8.192-29.696zM455.68 240.128l-5.12 1.024 9.216 54.272 6.144-1.024-10.24-54.272zM485.376 236.032l-5.12 1.024 2.048 29.696h6.144l-3.072-30.72zM512 231.936h-8.192v56.32h8.192v-56.32zM538.624 236.032l-3.072 30.72h6.144l2.048-29.696-5.12-1.024zM253.952 314.88l226.304 288.768 288.768 226.304-222.208-292.864-292.864-222.208zM568.32 240.128l-10.24 54.272 6.144 1.024 9.216-54.272-5.12-1.024zM596.992 245.248l-8.192 29.696 6.144 1.024 7.168-28.672-5.12-2.048zM624.64 254.464l-19.456 52.224 6.144 2.048 19.456-52.224-6.144-2.048zM652.288 265.728l-13.312 26.624 6.144 3.072 12.288-27.648-5.12-2.048zM678.912 278.016l-28.672 48.128 6.144 3.072 27.648-47.104-5.12-4.096zM703.488 294.4l-17.408 24.576 4.096 3.072 17.408-24.576-4.096-3.072zM727.040 311.808l-34.816 43.008 5.12 4.096 34.816-43.008-5.12-4.096zM748.544 332.288l-20.48 20.48 4.096 4.096 21.504-21.504-5.12-3.072zM769.024 353.792l-43.008 34.816 4.096 5.12 43.008-34.816-4.096-5.12zM787.456 377.344l-24.576 17.408 3.072 4.096 24.576-17.408-3.072-4.096zM802.816 401.92l-47.104 27.648 3.072 6.144 48.128-28.672-4.096-5.12zM817.152 427.52l-27.648 12.288 2.048 6.144 27.648-13.312-2.048-5.12zM828.416 454.144l-51.2 19.456 2.048 6.144 52.224-19.456-3.072-6.144zM837.632 482.816l-28.672 7.168 1.024 6.144 29.696-8.192-2.048-5.12zM843.776 511.488l-54.272 9.216 1.024 6.144 54.272-10.24-1.024-5.12zM848.896 541.184l-30.72 2.048 1.024 5.12 30.72-2.048-1.024-5.12z" />
<glyph unicode="&#xe807;" glyph-name="edge" d="M39.936 505.344v0q9.216 72.704 33.792 138.24t65.536 123.904 95.232 100.352 128 67.584 157.696 24.576q132.096 0 236.544-60.416t168.96-173.056q59.392-107.52 59.392-252.928v-107.52h-643.072q0-63.488 30.72-109.568t77.824-70.656 108.544-31.744 120.832-2.048 118.784 26.624 99.328 48.128v-215.040q-52.224-31.744-131.072-53.248t-178.176-21.504-181.248 30.72q-107.52 40.96-177.152 142.336t-71.68 211.968q-1.024 138.24 63.488 235.52t185.344 153.6q-26.624-34.816-44.032-71.68t-26.624-91.136h363.52q4.096 44.032-5.12 79.872t-26.624 57.344-39.936 38.912-46.080 22.528-43.008 12.288-31.744 5.12h-13.312q-76.8-3.072-148.48-25.6t-126.976-59.392-100.352-79.872-78.848-94.208z" />
<glyph unicode="&#xe808;" glyph-name="chrome" d="M690.176 443.904c0-99.328-80.896-180.224-181.248-180.224s-181.248 80.896-181.248 180.224c0 100.352 80.896 181.248 181.248 181.248s181.248-80.896 181.248-181.248zM512 664.064h433.152c-78.848 159.744-244.736 269.312-436.224 269.312-154.624 0-292.864-73.728-381.952-186.368l168.96-285.696c8.192 110.592 88.064 201.728 216.064 202.752zM961.536 632.32h-334.848c59.392-48.128 98.304-111.616 98.304-187.392 0-36.864-9.216-68.608-26.624-108.544v0l-221.184-380.928c10.24 0 20.48 1.024 31.744 1.024 269.312 0 487.424 221.184 487.424 490.496 0 64.512-13.312 120.832-34.816 185.344zM508.928 228.864c-93.184 0-173.056 59.392-202.752 142.336l-201.728 344.064c-52.224-77.824-81.92-171.008-81.92-271.36 0-244.736 180.224-447.488 416.768-481.28l167.936 288.768c-29.696-14.336-63.488-22.528-98.304-22.528z" />
<glyph unicode="&#xe809;" glyph-name="firefox-wordmark" d="M118.784 629.248l-22.528-17.408c-4.096 13.312-1.024 24.576 3.072 36.864 7.168 23.552 19.456 44.032 33.792 63.488 5.12 7.168 9.216 14.336 9.216 23.552-1.024 34.816 3.072 68.608 14.336 100.352 6.144 16.384 14.336 31.744 27.648 45.056 6.144-25.6 11.264-51.2 25.6-70.656 10.24 9.216 20.48 18.432 30.72 27.648 59.392 56.32 130.048 91.136 211.968 102.4 101.376 15.36 195.584-7.168 280.576-64.512 8.192-6.144 17.408-10.24 26.624-14.336 39.936-19.456 70.656-50.176 90.112-91.136 3.072-6.144 5.12-13.312 8.192-20.48h3.072c-4.096 21.504-7.168 41.984-11.264 65.536 44.032-61.44 57.344-130.048 61.44-201.728 8.192 11.264 8.192 24.576 12.288 37.888 2.048-9.216 4.096-19.456 5.12-28.672 4.096-36.864-3.072-73.728-10.24-109.568-16.384-86.016-53.248-162.816-109.568-228.352-64.512-75.776-144.384-125.952-244.736-138.24-144.384-17.408-266.24 29.696-364.544 137.216-48.128 52.224-78.848 111.616-93.184 180.224-10.24 52.224-8.192 104.448 9.216 154.624l3.072 7.168v3.072zM775.168 697.856l3.072 3.072 30.72-24.576c0 8.192 0 15.36-1.024 22.528-6.144 32.768-25.6 55.296-49.152 75.776-30.72 24.576-65.536 41.984-101.376 57.344-4.096 1.024-7.168 3.072-10.24 4.096v4.096l51.2 3.072c-19.456 30.72-51.2 38.912-83.968 48.128l4.096 2.048c-66.56 20.48-132.096 22.528-198.656 5.12-61.44-15.36-153.6-71.68-167.936-101.376l4.096 1.024c23.552 5.12 46.080 7.168 69.632 0 3.072-1.024 7.168 1.024 9.216 3.072 21.504 19.456 46.080 34.816 74.752 44.032 8.192 2.048 17.408 4.096 26.624 6.144-1.024-3.072-2.048-4.096-3.072-5.12-29.696-20.48-49.152-46.080-55.296-81.92 0-2.048 0-5.12 2.048-6.144 12.288-12.288 25.6-24.576 38.912-35.84 5.12-4.096 11.264-7.168 17.408-8.192 12.288-2.048 24.576-2.048 35.84-3.072 8.192 0 12.288-5.12 10.24-11.264-4.096-9.216-8.192-17.408-17.408-23.552-17.408-11.264-32.768-24.576-49.152-36.864-4.096-3.072-4.096-6.144-2.048-10.24 4.096-8.192 7.168-17.408 10.24-25.6 3.072-11.264 4.096-23.552 1.024-34.816-9.216 2.048-17.408 4.096-26.624 5.12-8.192 2.048-16.384 3.072-25.6 5.12-10.24 2.048-19.456-2.048-25.6-10.24-6.144-10.24-6.144-21.504 1.024-29.696 13.312-18.432 29.696-33.792 48.128-47.104 15.36-10.24 32.768-16.384 51.2-12.288 12.288 3.072 25.6 8.192 36.864 14.336 35.84 18.432 75.776 12.288 100.352-16.384 4.096-5.12 7.168-11.264 3.072-17.408-3.072-6.144-9.216-7.168-16.384-6.144-7.168 2.048-13.312 1.024-20.48-3.072-17.408-11.264-33.792-23.552-52.224-32.768-28.672-15.36-60.416-20.48-93.184-19.456-4.096 0-7.168 0-11.264 0l2.048-4.096c24.576-22.528 51.2-39.936 82.944-51.2 34.816-11.264 69.632-15.36 105.472-6.144 40.96 11.264 72.704 35.84 99.328 66.56 11.264 12.288 20.48 25.6 30.72 38.912l3.072-1.024-9.216-62.464c49.152 61.44 51.2 131.072 44.032 203.776 14.336-16.384 18.432-34.816 26.624-53.248 17.408 58.368 9.216 113.664-4.096 167.936zM215.040 86.528v-38.912h43.008v-25.6h-43.008v-58.368h-34.816v147.456h88.064l-4.096-24.576h-49.152zM320.512 131.584c4.096-4.096 6.144-8.192 6.144-14.336s-2.048-10.24-6.144-13.312c-3.072-4.096-8.192-5.12-14.336-5.12-5.12 0-10.24 1.024-14.336 5.12-3.072 3.072-5.12 8.192-5.12 13.312s2.048 10.24 5.12 14.336c4.096 3.072 9.216 5.12 14.336 5.12 6.144 0 11.264-2.048 14.336-5.12zM289.792-36.352v113.664h33.792v-113.664h-33.792zM422.912 78.336l-5.12-32.768c-5.12 1.024-8.192 2.048-10.24 2.048-7.168 0-12.288-2.048-15.36-7.168-4.096-4.096-6.144-11.264-8.192-20.48v-56.32h-33.792v113.664h29.696l2.048-22.528c3.072 8.192 7.168 14.336 12.288 18.432 5.12 5.12 10.24 7.168 17.408 7.168 4.096 0 7.168-1.024 11.264-2.048zM531.456 10.752h-69.632c1.024-10.24 3.072-16.384 7.168-20.48 5.12-4.096 10.24-6.144 18.432-6.144 4.096 0 9.216 1.024 13.312 3.072 4.096 1.024 8.192 4.096 13.312 7.168l14.336-18.432c-13.312-10.24-28.672-16.384-44.032-16.384-18.432 0-32.768 6.144-43.008 16.384s-14.336 25.6-14.336 44.032c0 11.264 2.048 21.504 6.144 30.72s10.24 16.384 18.432 21.504c8.192 6.144 17.408 8.192 28.672 8.192 16.384 0 28.672-5.12 37.888-15.36s14.336-24.576 14.336-43.008c0-4.096 0-8.192-1.024-11.264zM498.688 32.256c0 17.408-6.144 25.6-17.408 25.6-6.144 0-11.264-2.048-14.336-6.144s-5.12-11.264-5.12-21.504h36.864v2.048zM592.896 97.792c-2.048-3.072-3.072-6.144-3.072-12.288v-8.192h26.624l-3.072-23.552h-23.552v-90.112h-33.792v90.112h-17.408v23.552h17.408v9.216c0 12.288 4.096 21.504 11.264 28.672s18.432 10.24 31.744 10.24c11.264 0 21.504-2.048 31.744-7.168l-9.216-21.504c-6.144 2.048-12.288 4.096-18.432 4.096-4.096 0-8.192-1.024-10.24-3.072zM715.776 65.024c9.216-11.264 14.336-25.6 14.336-45.056 0-12.288-2.048-22.528-7.168-31.744-4.096-9.216-10.24-15.36-18.432-20.48-9.216-5.12-18.432-8.192-29.696-8.192-17.408 0-30.72 6.144-40.96 16.384s-14.336 25.6-14.336 44.032c0 12.288 2.048 23.552 6.144 31.744 5.12 9.216 11.264 16.384 19.456 21.504s18.432 7.168 29.696 7.168c17.408 0 30.72-5.12 40.96-15.36zM659.456 47.616c-4.096-6.144-5.12-15.36-5.12-27.648s1.024-21.504 5.12-26.624c3.072-6.144 8.192-8.192 15.36-8.192 6.144 0 11.264 2.048 15.36 8.192s5.12 14.336 5.12 26.624c0 12.288-2.048 21.504-5.12 27.648-3.072 5.12-8.192 8.192-15.36 8.192s-12.288-3.072-15.36-8.192zM805.888-36.352l-19.456 41.984-19.456-41.984h-36.864l36.864 59.392-32.768 54.272h37.888l15.36-36.864 15.36 36.864h35.84l-30.72-53.248 35.84-60.416h-37.888z" />
<glyph unicode="&#xe80a;" glyph-name="firefox" d="M58.368 546.304l-25.6-20.48c-4.096 15.36-1.024 28.672 3.072 41.984 8.192 26.624 23.552 51.2 39.936 73.728 6.144 8.192 10.24 16.384 10.24 27.648-1.024 38.912 3.072 77.824 16.384 115.712 7.168 18.432 16.384 36.864 32.768 52.224 6.144-30.72 11.264-60.416 28.672-82.944 11.264 11.264 23.552 21.504 34.816 31.744 69.632 65.536 150.528 105.472 244.736 118.784 116.736 17.408 225.28-8.192 323.584-74.752 9.216-6.144 20.48-11.264 30.72-16.384 46.080-22.528 81.92-57.344 103.424-104.448 4.096-8.192 6.144-16.384 10.24-24.576l2.048 1.024-12.288 75.776c51.2-71.68 66.56-150.528 71.68-233.472 9.216 13.312 9.216 28.672 14.336 44.032 1.024-11.264 4.096-22.528 5.12-32.768 4.096-43.008-4.096-84.992-12.288-126.976-18.432-99.328-61.44-187.392-125.952-263.168-73.728-87.040-165.888-145.408-281.6-158.72-166.912-20.48-307.2 33.792-420.864 157.696-54.272 59.392-90.112 129.024-106.496 207.872-12.288 60.416-9.216 119.808 10.24 178.176l3.072 9.216c0 0 0 1.024 0 3.072zM815.104 625.152l3.072 3.072 35.84-27.648c0 8.192 0 17.408-1.024 25.6-7.168 36.864-28.672 63.488-57.344 87.040-34.816 28.672-74.752 49.152-116.736 65.536-4.096 2.048-7.168 4.096-11.264 6.144v4.096l58.368 3.072c-21.504 35.84-58.368 46.080-96.256 56.32l5.12 2.048c-76.8 23.552-152.576 25.6-228.352 6.144-71.68-18.432-178.176-82.944-194.56-117.76l5.12 1.024c26.624 7.168 53.248 9.216 79.872 1.024 3.072-1.024 8.192 1.024 11.264 3.072 24.576 22.528 53.248 40.96 84.992 50.176 10.24 3.072 21.504 6.144 31.744 8.192-1.024-3.072-2.048-5.12-4.096-6.144-33.792-23.552-56.32-53.248-62.464-95.232-1.024-2.048 0-5.12 1.024-7.168 15.36-13.312 29.696-27.648 45.056-40.96 6.144-4.096 13.312-7.168 20.48-9.216 13.312-2.048 27.648-2.048 41.984-3.072 8.192-1.024 13.312-6.144 10.24-13.312-4.096-10.24-9.216-20.48-19.456-26.624-19.456-13.312-37.888-28.672-57.344-43.008-4.096-3.072-4.096-6.144-2.048-12.288 5.12-9.216 9.216-19.456 12.288-29.696 3.072-12.288 4.096-25.6 1.024-39.936-10.24 3.072-20.48 5.12-30.72 7.168-9.216 2.048-19.456 3.072-29.696 5.12-12.288 2.048-22.528-2.048-28.672-12.288-8.192-11.264-8.192-23.552 0-33.792 16.384-20.48 34.816-38.912 56.32-54.272 17.408-12.288 36.864-18.432 58.368-14.336 15.36 3.072 29.696 9.216 43.008 16.384 40.96 21.504 87.040 14.336 115.712-18.432 5.12-6.144 8.192-13.312 3.072-20.48-4.096-7.168-10.24-8.192-18.432-6.144s-16.384 1.024-23.552-4.096c-19.456-13.312-38.912-27.648-60.416-37.888-32.768-18.432-69.632-23.552-107.52-22.528-4.096 0-8.192 0-13.312 0 2.048-2.048 2.048-3.072 3.072-4.096 27.648-26.624 59.392-47.104 95.232-59.392 39.936-12.288 80.896-18.432 121.856-6.144 47.104 12.288 82.944 39.936 114.688 75.776 12.288 14.336 23.552 29.696 35.84 45.056l3.072-1.024-11.264-71.68c57.344 69.632 59.392 149.504 51.2 234.496 16.384-18.432 21.504-39.936 30.72-61.44 19.456 66.56 10.24 130.048-5.12 193.536z" />
<glyph unicode="&#xe80b;" glyph-name="illustrator-line" d="M8.192 951.808v-1006.592c8.192 0 8.192-1.024 10.24-1.024 290.816-1.024 581.632-1.024 872.448-1.024 39.936 0 78.848 0 118.784 1.024 2.048 0 6.144 1.024 6.144 1.024 0 335.872 0 670.72 0 1006.592h-1007.616zM919.552 449.024v-389.12c0-13.312-1.024-12.288-14.336-12.288h-779.264c-12.288 0-14.336-1.024-14.336 12.288v778.24c0 13.312 2.048 17.408 15.36 17.408h777.216c14.336 0 15.36-4.096 15.36-18.432v-388.096zM515.072 637.44c-1.024 5.12-4.096 5.12-9.216 5.12-24.576 0-50.176 0-74.752 0-8.192 0-11.264-2.048-13.312-10.24-35.84-109.568-70.656-220.16-106.496-329.728-5.12-18.432-11.264-36.864-17.408-56.32 23.552 0 45.056 1.024 65.536 0 7.168 0 10.24 2.048 12.288 9.216 9.216 31.744 19.456 62.464 28.672 94.208 2.048 7.168 5.12 9.216 12.288 9.216 35.84-1.024 70.656-1.024 106.496 0 7.168 0 10.24-2.048 11.264-9.216 10.24-30.72 20.48-62.464 29.696-94.208 2.048-6.144 5.12-9.216 12.288-8.192 10.24 1.024 21.504 1.024 31.744 1.024h36.864v2.048c-41.984 129.024-83.968 258.048-125.952 387.072zM415.744 416.256c16.384 55.296 32.768 110.592 49.152 164.864 16.384-54.272 32.768-109.568 49.152-164.864h-98.304zM656.384 248.32h79.872v287.744h-79.872v-287.744zM696.32 651.776c-23.552 0-40.96-17.408-40.96-39.936s17.408-38.912 40.96-38.912c24.576 0 40.96 16.384 40.96 38.912 0 23.552-16.384 39.936-40.96 39.936z" />
<glyph unicode="&#xe80c;" glyph-name="illustrator" d="M384 408.064h122.88c-21.504 71.68-41.984 138.24-62.464 205.824-20.48-67.584-39.936-134.144-60.416-205.824zM993.28 951.808h-970.752c-17.408 0-14.336-3.072-14.336-20.48v-970.752c0-17.408-3.072-16.384 13.312-16.384h972.8c16.384 0 21.504-1.024 21.504 16.384v969.728c0 18.432-5.12 21.504-22.528 21.504zM618.496 192c-13.312 0-26.624 1.024-38.912 0-10.24-1.024-13.312 3.072-15.36 11.264-12.288 39.936-25.6 78.848-36.864 118.784-3.072 8.192-6.144 10.24-15.36 10.24-44.032 0-88.064 0-132.096 0-9.216 1.024-13.312-2.048-16.384-11.264-11.264-38.912-23.552-77.824-34.816-117.76-2.048-8.192-6.144-11.264-15.36-10.24-26.624 0-53.248 0-81.92 0 7.168 24.576 14.336 47.104 21.504 68.608 44.032 138.24 89.088 275.456 132.096 413.696 3.072 9.216 7.168 12.288 17.408 12.288 30.72-1.024 62.464 0 93.184 0 6.144 0 10.24-1.024 12.288-7.168 52.224-160.768 104.448-322.56 156.672-483.328 0-1.024 0-5.12 0-5.12h-46.080zM784.384 192h-96.256v360.448h96.256v-360.448zM733.184 600.576c-29.696 0-50.176 20.48-50.176 48.128 0 28.672 21.504 50.176 51.2 50.176s50.176-20.48 51.2-50.176c0-27.648-21.504-48.128-52.224-48.128z" />
<glyph unicode="&#xe80d;" glyph-name="css3-wordmark" d="M157.696 752.128l64.512-723.968 289.792-80.896 289.792 80.896 64.512 723.968h-708.608zM710.656 347.648l-18.432-175.104v-14.336l-180.224-50.176-182.272 49.152-12.288 139.264h89.088l7.168-70.656 98.304-26.624v1.024l99.328 27.648 10.24 115.712h-206.848l-2.048 19.456-4.096 45.056-2.048 23.552h223.232l8.192 88.064h-339.968l-2.048 21.504-4.096 48.128-2.048 26.624h444.416l-2.048-26.624-21.504-241.664zM711.68 845.312l-56.32 66.56h56.32v39.936h-128v-34.816l67.584-61.44h-67.584v-39.936h128zM560.128 845.312l-54.272 66.56h54.272v39.936h-119.808v-34.816l61.44-61.44h-61.44v-39.936h119.808zM415.744 855.552h-63.488v56.32h63.488v39.936h-111.616v-136.192h111.616z" />
<glyph unicode="&#xe80e;" glyph-name="css3" d="M69.632 951.808l80.896-903.168 361.472-100.352 361.472 101.376 80.896 902.144h-884.736zM786.432 744.96l-26.624-301.056v-5.12l-18.432-209.92-2.048-18.432-227.328-63.488-226.304 63.488-15.36 174.080h110.592l8.192-89.088 122.88-32.768 123.904 33.792 12.288 143.36h-258.048l-2.048 24.576-5.12 57.344-2.048 30.72h277.504l10.24 111.616h-423.936l-2.048 24.576-5.12 56.32-2.048 30.72h553.984l-3.072-30.72z" />
<glyph unicode="&#xe80f;" glyph-name="html5-wordmark" d="M156.672 743.936l64.512-718.848 290.816-77.824 290.816 75.776 64.512 720.896h-710.656zM733.184 580.096l-4.096-46.080-2.048-21.504h-340.992l8.192-96.256h324.608l-2.048-18.432-20.48-230.4-2.048-14.336-182.272-49.152-182.272 48.128-12.288 136.192h89.088l6.144-67.584 99.328-25.6v2.048l99.328 21.504 10.24 109.568h-308.224l-21.504 246.784-3.072 24.576h446.464l-2.048-19.456zM223.232 946.688h45.056v-44.032h41.984v44.032h44.032v-134.144h-44.032v45.056h-41.984v-45.056h-45.056v134.144zM413.696 902.656h-38.912v44.032h123.904v-44.032h-39.936v-90.112h-45.056v90.112zM518.144 946.688h47.104l28.672-47.104 28.672 47.104h47.104v-134.144h-45.056v66.56l-30.72-48.128h-1.024l-30.72 48.128v-66.56h-44.032v134.144zM692.224 946.688h45.056v-90.112h63.488v-44.032h-108.544v134.144z" />
<glyph unicode="&#xe810;" glyph-name="html5" d="M72.704 943.616l79.872-896 359.424-99.328 359.424 98.304 79.872 897.024h-878.592zM785.408 731.648l-5.12-57.344-2.048-26.624h-421.888l10.24-111.616h401.408l-3.072-27.648-25.6-288.768-2.048-18.432-225.28-62.464-225.28 59.392-15.36 169.984h110.592l7.168-87.040 122.88-32.768v4.096l122.88 30.72 13.312 141.312h-381.952l-27.648 304.128-2.048 31.744h550.912l-2.048-28.672z" />
<glyph unicode="&#xe811;" glyph-name="react-wordmark" d="M586.752 580.096c0-40.96-33.792-74.752-74.752-74.752s-74.752 33.792-74.752 74.752c0 40.96 33.792 74.752 74.752 74.752s74.752-33.792 74.752-74.752zM512 306.688c58.368-57.344 115.712-91.136 162.816-91.136 14.336 0 29.696 4.096 40.96 11.264 41.984 23.552 57.344 83.968 43.008 168.96-3.072 15.36-6.144 30.72-10.24 47.104 16.384 4.096 30.72 9.216 45.056 14.336 80.896 30.72 125.952 73.728 125.952 120.832 0 48.128-45.056 91.136-125.952 121.856-14.336 6.144-28.672 10.24-45.056 14.336 4.096 16.384 7.168 31.744 10.24 47.104 13.312 87.040-2.048 147.456-44.032 171.008-11.264 8.192-25.6 11.264-40.96 11.264-46.080 0-104.448-33.792-162.816-91.136-57.344 57.344-114.688 91.136-161.792 91.136-14.336 0-28.672-3.072-40.96-11.264-41.984-23.552-57.344-83.968-43.008-168.96 3.072-15.36 6.144-30.72 10.24-46.080-16.384-5.12-30.72-10.24-45.056-15.36-80.896-30.72-125.952-73.728-125.952-120.832 0-48.128 45.056-91.136 125.952-121.856 14.336-5.12 28.672-10.24 45.056-14.336-4.096-16.384-7.168-31.744-10.24-46.080-13.312-86.016 2.048-146.432 43.008-169.984 12.288-7.168 26.624-10.24 40.96-10.24 47.104-2.048 104.448 31.744 162.816 88.064zM466.944 414.208c14.336-1.024 29.696-1.024 45.056-1.024s30.72 0 45.056 1.024c-14.336-19.456-29.696-36.864-45.056-53.248-15.36 16.384-30.72 33.792-45.056 53.248zM367.616 497.152c8.192-14.336 15.36-26.624 24.576-39.936-24.576 4.096-48.128 7.168-70.656 12.288 7.168 21.504 15.36 44.032 24.576 66.56 7.168-13.312 14.336-26.624 21.504-38.912zM321.536 689.664c22.528 5.12 46.080 9.216 70.656 12.288-8.192-13.312-16.384-25.6-24.576-39.936s-14.336-25.6-21.504-39.936c-10.24 23.552-18.432 46.080-24.576 67.584zM365.568 580.096c10.24 21.504 21.504 43.008 34.816 64.512 11.264 21.504 25.6 41.984 38.912 62.464 23.552 2.048 48.128 3.072 72.704 3.072 25.6 0 49.152-1.024 72.704-3.072 14.336-20.48 27.648-40.96 38.912-62.464 13.312-21.504 24.576-43.008 34.816-64.512-10.24-21.504-21.504-43.008-34.816-64.512-11.264-21.504-25.6-41.984-38.912-62.464-23.552-2.048-48.128-3.072-72.704-3.072-25.6 0-49.152 1.024-72.704 3.072-14.336 20.48-27.648 40.96-38.912 62.464-13.312 21.504-24.576 43.008-34.816 64.512zM678.912 623.104l-22.528 39.936c-7.168 13.312-14.336 26.624-23.552 38.912 24.576-3.072 48.128-7.168 70.656-11.264-7.168-22.528-15.36-45.056-24.576-67.584zM678.912 537.088c9.216-22.528 17.408-45.056 24.576-66.56-22.528-5.12-46.080-9.216-70.656-12.288 8.192 13.312 16.384 25.6 23.552 38.912 7.168 12.288 15.36 25.6 22.528 39.936zM697.344 259.584c-7.168-4.096-15.36-6.144-23.552-6.144-38.912 0-88.064 31.744-136.192 79.872 23.552 25.6 46.080 53.248 67.584 83.968 37.888 3.072 73.728 9.216 107.52 17.408 4.096-14.336 6.144-28.672 9.216-43.008 11.264-68.608 2.048-116.736-24.576-132.096zM738.304 680.448c90.112-25.6 143.36-64.512 143.36-100.352 0-31.744-36.864-62.464-101.376-87.040-13.312-5.12-27.648-10.24-41.984-13.312-10.24 32.768-23.552 65.536-38.912 100.352 15.36 34.816 29.696 67.584 38.912 100.352zM674.816 906.752c8.192 0 15.36-2.048 22.528-6.144 26.624-15.36 35.84-62.464 25.6-132.096-3.072-13.312-6.144-27.648-9.216-43.008-33.792 7.168-69.632 13.312-107.52 17.408-21.504 30.72-45.056 58.368-67.584 83.968 48.128 47.104 96.256 79.872 136.192 79.872zM557.056 745.984c-14.336 0-29.696 0-45.056 0s-30.72 0-45.056 0c14.336 18.432 29.696 36.864 45.056 53.248 15.36-16.384 30.72-34.816 45.056-53.248zM327.68 900.608c6.144 4.096 14.336 6.144 22.528 6.144 39.936 0 88.064-32.768 136.192-79.872-23.552-25.6-45.056-53.248-67.584-83.968-37.888-4.096-73.728-9.216-107.52-17.408-4.096 14.336-6.144 28.672-9.216 43.008-11.264 68.608-2.048 116.736 25.6 132.096zM285.696 479.744c-90.112 25.6-143.36 64.512-143.36 100.352 0 30.72 36.864 62.464 101.376 87.040 13.312 5.12 27.648 9.216 41.984 13.312 10.24-32.768 23.552-65.536 38.912-100.352-15.36-34.816-29.696-68.608-38.912-100.352zM302.080 391.68c3.072 13.312 6.144 27.648 9.216 43.008 33.792-7.168 69.632-13.312 107.52-17.408 21.504-30.72 44.032-58.368 67.584-83.968-48.128-47.104-96.256-79.872-136.192-79.872-8.192 0-15.36 2.048-22.528 6.144-27.648 15.36-36.864 63.488-25.6 132.096zM269.312 61.952c17.408 21.504 18.432 45.056 8.192 69.632s-29.696 34.816-54.272 35.84c-29.696 1.024-60.416 0-89.088 0h-6.144v-207.872h23.552v78.848h37.888c5.12 0 9.216-2.048 11.264-6.144l48.128-73.728c1.024-2.048 3.072-4.096 5.12-4.096h30.72c-19.456 29.696-37.888 57.344-56.32 86.016 16.384 3.072 30.72 8.192 40.96 21.504zM151.552 62.976v79.872h9.216c18.432 0 37.888 0 56.32-1.024 21.504-1.024 36.864-17.408 36.864-38.912s-17.408-38.912-39.936-39.936c-18.432-1.024-37.888 0-62.464 0zM461.824 52.736c-13.312 56.32-64.512 70.656-103.424 53.248-30.72-14.336-44.032-39.936-45.056-73.728 0-24.576 7.168-47.104 25.6-63.488 21.504-19.456 48.128-21.504 75.776-16.384 15.36 3.072 28.672 10.24 38.912 21.504-4.096 5.12-8.192 11.264-12.288 15.36-22.528-18.432-47.104-25.6-73.728-12.288-18.432 8.192-26.624 29.696-28.672 46.080h123.904v10.24c1.024 7.168 0 14.336-1.024 19.456zM340.992 40.448c-2.048 23.552 21.504 49.152 48.128 49.152 29.696 1.024 49.152-17.408 50.176-49.152h-98.304zM586.752 110.080c-12.288 2.048-25.6 3.072-36.864 2.048-19.456-2.048-35.84-10.24-50.176-24.576 4.096-6.144 7.168-11.264 12.288-18.432 2.048 2.048 3.072 4.096 5.12 4.096 12.288 12.288 27.648 18.432 46.080 17.408 14.336-1.024 27.648-6.144 31.744-20.48 3.072-11.264 3.072-22.528 3.072-34.816-2.048 0-3.072 1.024-3.072 1.024-19.456 16.384-40.96 19.456-64.512 14.336-21.504-6.144-34.816-22.528-36.864-44.032-1.024-25.6 9.216-43.008 31.744-52.224 13.312-6.144 28.672-6.144 43.008-2.048 11.264 2.048 15.36 8.192 31.744 17.408v-10.24h22.528c0 31.744 1.024 70.656 0 107.52 0 23.552-13.312 37.888-35.84 43.008zM598.016 8.704c-1.024-2.048 0-5.12 0-7.168 0-16.384-4.096-22.528-20.48-28.672-11.264-4.096-23.552-6.144-34.816-2.048-14.336 4.096-23.552 16.384-23.552 29.696-1.024 14.336 8.192 27.648 21.504 31.744 18.432 6.144 35.84 2.048 50.176-9.216 5.12-4.096 8.192-8.192 7.168-14.336zM722.944 87.552c20.48 7.168 39.936 3.072 54.272-14.336l2.048-2.048c5.12 5.12 10.24 9.216 16.384 15.36-2.048 2.048-3.072 4.096-4.096 6.144-23.552 24.576-68.608 28.672-97.28 8.192-38.912-28.672-37.888-84.992-19.456-114.688 18.432-27.648 45.056-37.888 76.8-33.792 18.432 3.072 32.768 11.264 45.056 26.624-5.12 5.12-11.264 10.24-16.384 15.36-2.048-2.048-3.072-2.048-3.072-4.096-21.504-23.552-58.368-21.504-76.8 4.096-11.264 15.36-14.336 32.768-11.264 50.176 2.048 20.48 12.288 35.84 33.792 43.008zM888.832-20.992c-2.048-1.024-2.048-1.024-2.048-1.024-7.168-5.12-13.312-6.144-20.48-4.096-7.168 4.096-8.192 10.24-8.192 16.384v91.136c0 2.048 0-1.024 0 6.144h30.72v24.576h-31.744v39.936h-24.576v-43.008h-20.48c-2.048 0-4.096-2.048-4.096-3.072-1.024-6.144 0-10.24 0-18.432h25.6v-102.4c0-12.288 3.072-23.552 14.336-29.696 12.288-7.168 35.84-6.144 46.080 3.072 1.024 1.024 2.048 4.096 2.048 5.12-2.048 4.096-5.12 10.24-7.168 15.36z" />
<glyph unicode="&#xe812;" glyph-name="react" d="M603.136 448c0-50.176-40.96-91.136-91.136-91.136s-91.136 40.96-91.136 91.136c0 50.176 40.96 91.136 91.136 91.136s91.136-40.96 91.136-91.136zM858.112 598.528c-17.408 6.144-35.84 12.288-55.296 18.432 5.12 19.456 9.216 37.888 12.288 56.32 17.408 105.472-1.024 180.224-52.224 208.896-15.36 9.216-32.768 13.312-51.2 13.312-56.32 0-128-41.984-199.68-111.616-71.68 69.632-143.36 111.616-198.656 111.616-19.456 0-36.864-4.096-51.2-13.312-51.2-29.696-69.632-103.424-53.248-208.896 3.072-18.432 7.168-36.864 12.288-56.32-19.456-6.144-37.888-11.264-55.296-18.432-100.352-38.912-154.624-91.136-154.624-150.528s55.296-111.616 154.624-150.528c17.408-6.144 35.84-12.288 55.296-18.432-5.12-19.456-9.216-37.888-12.288-56.32-16.384-105.472 2.048-180.224 53.248-208.896 14.336-9.216 31.744-13.312 51.2-13.312 56.32 0 128 41.984 198.656 111.616 71.68-69.632 143.36-111.616 199.68-111.616 18.432 0 35.84 4.096 51.2 13.312 51.2 29.696 69.632 103.424 52.224 208.896-3.072 18.432-7.168 36.864-12.288 56.32 19.456 6.144 37.888 11.264 55.296 18.432 100.352 38.912 154.624 91.136 154.624 150.528s-54.272 111.616-154.624 150.528zM740.352 842.24c32.768-19.456 44.032-77.824 29.696-161.792-2.048-17.408-6.144-34.816-11.264-53.248-40.96 9.216-84.992 16.384-131.072 20.48-27.648 37.888-55.296 72.704-83.968 103.424 59.392 58.368 119.808 98.304 167.936 98.304 11.264 0 20.48-2.048 28.672-7.168zM650.24 368.128c-14.336-25.6-30.72-51.2-48.128-76.8-29.696-2.048-59.392-3.072-90.112-3.072s-60.416 1.024-89.088 3.072c-18.432 25.6-33.792 51.2-48.128 76.8-15.36 26.624-29.696 53.248-43.008 79.872 13.312 26.624 27.648 53.248 43.008 79.872 14.336 25.6 30.72 51.2 48.128 76.8 29.696 3.072 59.392 3.072 90.112 3.072s60.416 0 89.088-3.072c18.432-25.6 33.792-51.2 48.128-76.8 15.36-26.624 29.696-53.248 43.008-79.872-14.336-26.624-27.648-53.248-43.008-79.872zM716.8 394.752c12.288-28.672 21.504-55.296 30.72-82.944-27.648-6.144-56.32-11.264-87.040-15.36 10.24 15.36 20.48 31.744 28.672 48.128 10.24 17.408 18.432 33.792 27.648 50.176zM512 177.664c-19.456 20.48-37.888 43.008-55.296 66.56 18.432-1.024 36.864-2.048 55.296-2.048s36.864 1.024 55.296 2.048c-17.408-23.552-35.84-46.080-55.296-66.56zM363.52 297.472c-30.72 4.096-59.392 9.216-87.040 15.36 9.216 26.624 18.432 54.272 30.72 81.92 9.216-15.36 17.408-32.768 27.648-48.128 9.216-17.408 18.432-32.768 28.672-49.152zM307.2 501.248c-12.288 28.672-21.504 55.296-30.72 82.944 27.648 6.144 56.32 11.264 87.040 15.36-10.24-15.36-20.48-31.744-28.672-48.128-10.24-17.408-18.432-33.792-27.648-50.176zM512 718.336c19.456-20.48 37.888-43.008 55.296-66.56-18.432 1.024-36.864 2.048-55.296 2.048s-36.864-1.024-55.296-2.048c17.408 23.552 35.84 46.080 55.296 66.56zM689.152 550.4l-28.672 48.128c30.72-4.096 59.392-9.216 87.040-15.36-9.216-26.624-18.432-54.272-30.72-81.92-9.216 16.384-17.408 32.768-27.648 49.152zM253.952 680.448c-14.336 83.968-3.072 142.336 29.696 161.792 8.192 5.12 18.432 7.168 28.672 7.168 48.128 0 107.52-38.912 167.936-98.304-28.672-30.72-56.32-65.536-82.944-103.424-47.104-4.096-91.136-11.264-132.096-20.48-5.12 18.432-8.192 35.84-11.264 53.248zM56.32 448c0 37.888 45.056 77.824 124.928 107.52 16.384 6.144 33.792 11.264 51.2 16.384 13.312-39.936 29.696-81.92 48.128-124.928-18.432-41.984-35.84-83.968-48.128-123.904-109.568 31.744-176.128 79.872-176.128 124.928zM283.648 53.76c-32.768 19.456-44.032 77.824-29.696 161.792 2.048 17.408 6.144 34.816 11.264 53.248 40.96-9.216 84.992-16.384 132.096-19.456 26.624-38.912 54.272-73.728 82.944-104.448-59.392-58.368-119.808-98.304-167.936-98.304-10.24 0-20.48 2.048-28.672 7.168zM770.048 215.552c14.336-83.968 3.072-142.336-29.696-161.792-8.192-5.12-17.408-7.168-28.672-7.168-48.128 0-107.52 38.912-167.936 98.304 28.672 30.72 56.32 65.536 83.968 104.448 46.080 3.072 90.112 10.24 131.072 19.456 5.12-18.432 8.192-35.84 11.264-53.248zM842.752 340.48c-16.384-6.144-33.792-11.264-51.2-16.384-13.312 39.936-28.672 81.92-48.128 124.928 19.456 41.984 35.84 83.968 48.128 123.904 110.592-31.744 176.128-79.872 176.128-124.928 0-37.888-46.080-77.824-124.928-107.52z" />
<glyph unicode="&#xe813;" glyph-name="git-wordmark" d="M608.256 555.52c-61.44 0-92.16-31.744-92.16-77.824 0-29.696 15.36-51.2 34.816-60.416-9.216-9.216-17.408-16.384-24.576-24.576-7.168-7.168-12.288-15.36-12.288-24.576 0-10.24 5.12-20.48 18.432-25.6-14.336-13.312-22.528-23.552-22.528-40.96 0-31.744 27.648-50.176 100.352-50.176 69.632 0 109.568 25.6 109.568 71.68 0 53.248-40.96 55.296-109.568 59.392l-39.936 3.072 13.312 20.48c7.168-1.024 19.456-3.072 31.744-3.072 51.2 0 86.016 25.6 86.016 70.656 0 18.432-9.216 30.72-16.384 39.936l34.816 3.072v35.84h-74.752c-9.216 0-19.456 3.072-36.864 3.072zM625.664 327.168c19.456-1.024 34.816-2.048 34.816-14.336 0-21.504-31.744-23.552-54.272-23.552-28.672 0-49.152 5.12-49.152 20.48 0 8.192 5.12 15.36 10.24 21.504l58.368-4.096zM610.304 444.928c-26.624 0-36.864 13.312-36.864 32.768 0 26.624 16.384 36.864 37.888 36.864 23.552 0 36.864-12.288 36.864-35.84 0-20.48-15.36-33.792-37.888-33.792zM793.6 586.24c23.552 0 35.84 13.312 35.84 36.864 0 22.528-12.288 34.816-35.84 34.816-22.528 0-35.84-12.288-35.84-34.816 0-23.552 13.312-36.864 35.84-36.864zM824.32 388.608v163.84h-77.824l-5.12-31.744 21.504-7.168c4.096-1.024 5.12-3.072 5.12-7.168v-117.76c0-6.144-3.072-7.168-9.216-8.192l-22.528-3.072v-33.792h119.808v33.792l-22.528 3.072c-6.144 1.024-9.216 2.048-9.216 8.192zM1003.52 396.8c-10.24-4.096-21.504-6.144-32.768-6.144-21.504 0-26.624 9.216-26.624 32.768v96.256h56.32v39.936h-53.248c-3.072 0-3.072 0-3.072 3.072v53.248h-38.912c-4.096-39.936-25.6-57.344-57.344-61.44v-34.816h31.744c4.096 0 0-2.048 0-5.12v-104.448c0-45.056 20.48-64.512 67.584-64.512 22.528 0 49.152 7.168 66.56 16.384l-10.24 34.816zM237.568 649.728c-10.24 10.24-27.648 10.24-37.888 0l-37.888-37.888 48.128-48.128c11.264 3.072 24.576 1.024 32.768-8.192 9.216-9.216 12.288-21.504 8.192-32.768l46.080-47.104c11.264 4.096 24.576 2.048 33.792-7.168 12.288-12.288 12.288-32.768 0-45.056-13.312-13.312-33.792-13.312-46.080 0-9.216 9.216-13.312 22.528-8.192 34.816l-44.032 43.008v-113.664c0-2.048 7.168-4.096 9.216-6.144 12.288-13.312 13.312-32.768 1.024-46.080-13.312-12.288-32.768-12.288-45.056 0-13.312 13.312-12.288 32.768 0 46.080 3.072 3.072 2.048 5.12 10.24 7.168v114.688c-8.192 1.024-7.168 4.096-10.24 7.168-9.216 9.216-12.288 23.552-7.168 34.816l-47.104 48.128-125.952-125.952c-10.24-10.24-10.24-27.648 0-37.888l183.296-183.296c10.24-10.24 27.648-10.24 37.888 0l182.272 182.272c10.24 10.24 10.24 27.648 0 37.888l-183.296 183.296z" />
<glyph unicode="&#xe814;" glyph-name="git" d="M998.4 493.056l-441.344 441.344c-25.6 24.576-66.56 24.576-92.16 0l-91.136-92.16 115.712-115.712c27.648 9.216 58.368 3.072 79.872-18.432 21.504-22.528 27.648-53.248 18.432-79.872l111.616-112.64c26.624 9.216 58.368 3.072 79.872-18.432 30.72-29.696 30.72-78.848 0-109.568-29.696-29.696-78.848-29.696-109.568 0-22.528 23.552-27.648 56.32-16.384 84.992l-104.448 104.448v-275.456c7.168-3.072 14.336-8.192 20.48-14.336 29.696-30.72 29.696-78.848 0-109.568-30.72-29.696-79.872-29.696-109.568 0-30.72 30.72-32.768 78.848-3.072 109.568 8.192 7.168 15.36 13.312 23.552 16.384v277.504c-8.192 4.096-15.36 9.216-23.552 17.408-22.528 22.528-26.624 56.32-15.36 83.968l-113.664 114.688-302.080-302.080c-25.6-25.6-24.576-66.56 0-92.16l441.344-441.344c25.6-24.576 66.56-24.576 92.16 0l439.296 439.296c24.576 25.6 24.576 66.56 0 92.16z" />
<glyph unicode="&#xe815;" glyph-name="bootstrap-wordmark" d="M76.8 58.88h32.768c15.36 0 26.624-2.048 32.768-6.144 7.168-4.096 10.24-11.264 10.24-20.48 0-6.144-1.024-11.264-4.096-15.36s-7.168-7.168-12.288-8.192v0c7.168-2.048 12.288-5.12 15.36-9.216s4.096-9.216 4.096-16.384c0-9.216-3.072-17.408-10.24-22.528s-17.408-8.192-28.672-8.192h-39.936v106.496zM99.328 16.896h13.312c6.144 0 10.24 1.024 13.312 3.072 2.048 2.048 4.096 5.12 4.096 9.216s-2.048 7.168-5.12 9.216-7.168 2.048-14.336 2.048h-11.264v-23.552zM99.328-1.536v-27.648h14.336c6.144 0 11.264 1.024 14.336 4.096s4.096 6.144 4.096 10.24c0 9.216-6.144 13.312-19.456 13.312h-13.312zM274.432 5.632c0-17.408-5.12-30.72-13.312-40.96s-21.504-14.336-37.888-14.336-28.672 5.12-37.888 14.336c-9.216 10.24-13.312 23.552-13.312 40.96s4.096 31.744 13.312 40.96 21.504 14.336 37.888 14.336 28.672-5.12 37.888-14.336c8.192-9.216 13.312-22.528 13.312-40.96zM195.584 5.632c0-11.264 3.072-20.48 7.168-26.624s11.264-9.216 20.48-9.216c18.432 0 26.624 12.288 26.624 35.84 0 24.576-8.192 36.864-26.624 36.864-9.216 0-15.36-3.072-20.48-9.216s-7.168-15.36-7.168-27.648zM393.216 5.632c0-17.408-4.096-30.72-13.312-40.96s-21.504-14.336-37.888-14.336-28.672 5.12-36.864 14.336c-9.216 10.24-13.312 23.552-13.312 40.96s4.096 31.744 13.312 40.96 20.48 14.336 37.888 14.336 28.672-5.12 36.864-14.336c9.216-9.216 13.312-22.528 13.312-40.96zM315.392 5.632c0-11.264 2.048-20.48 7.168-26.624 4.096-6.144 11.264-9.216 19.456-9.216 18.432 0 27.648 12.288 27.648 35.84 0 24.576-9.216 36.864-26.624 36.864-9.216 0-16.384-3.072-20.48-9.216s-7.168-15.36-7.168-27.648zM456.704-47.616h-22.528v88.064h-28.672v18.432h79.872v-18.432h-28.672v-88.064zM565.248-17.92c0-10.24-3.072-17.408-10.24-22.528s-16.384-9.216-28.672-9.216c-11.264 0-21.504 3.072-30.72 7.168v20.48c7.168-3.072 13.312-5.12 18.432-6.144s9.216-2.048 13.312-2.048c5.12 0 9.216 1.024 12.288 3.072 2.048 1.024 3.072 4.096 3.072 8.192 0 2.048 0 4.096-1.024 5.12-1.024 2.048-3.072 3.072-5.12 5.12s-7.168 4.096-14.336 7.168c-6.144 3.072-11.264 6.144-14.336 9.216-3.072 2.048-6.144 6.144-8.192 9.216-2.048 4.096-3.072 8.192-3.072 13.312 0 9.216 3.072 17.408 10.24 22.528s15.36 8.192 26.624 8.192c5.12 0 10.24-1.024 15.36-2.048s10.24-3.072 16.384-6.144l-7.168-17.408c-6.144 3.072-11.264 4.096-14.336 5.12s-8.192 1.024-11.264 1.024c-4.096 0-7.168-1.024-10.24-3.072s-3.072-4.096-3.072-7.168c0-2.048 0-4.096 1.024-5.12s3.072-3.072 5.12-4.096c2.048-2.048 6.144-4.096 14.336-8.192 9.216-4.096 16.384-9.216 20.48-14.336s5.12-10.24 5.12-17.408zM625.664-47.616h-22.528v88.064h-28.672v18.432h80.896v-18.432h-29.696v-88.064zM694.272-6.656v-40.96h-22.528v106.496h30.72c14.336 0 25.6-2.048 32.768-7.168 7.168-6.144 10.24-13.312 10.24-24.576 0-6.144-2.048-12.288-5.12-16.384s-8.192-9.216-14.336-12.288c15.36-23.552 26.624-38.912 30.72-46.080h-24.576l-25.6 40.96h-12.288zM694.272 11.776h7.168c7.168 0 12.288 1.024 16.384 3.072s5.12 7.168 5.12 12.288c0 4.096-2.048 8.192-5.12 10.24-4.096 2.048-9.216 3.072-16.384 3.072h-7.168v-28.672zM835.584-47.616l-7.168 25.6h-38.912l-8.192-25.6h-24.576l37.888 107.52h27.648l37.888-107.52h-24.576zM823.296-3.584c-7.168 23.552-11.264 36.864-12.288 39.936s-2.048 5.12-2.048 7.168c-2.048-7.168-6.144-22.528-14.336-47.104h28.672zM948.224 26.112c0-11.264-4.096-20.48-11.264-26.624s-17.408-9.216-30.72-9.216h-9.216v-37.888h-23.552v106.496h34.816c12.288 0 22.528-2.048 29.696-8.192 6.144-5.12 10.24-13.312 10.24-24.576zM897.024 8.704h7.168c7.168 0 12.288 2.048 15.36 4.096s5.12 7.168 5.12 12.288c0 5.12-1.024 9.216-4.096 12.288-3.072 2.048-7.168 3.072-13.312 3.072h-10.24v-31.744zM591.872 506.368c-16.384 5.12-38.912 6.144-68.608 6.144h-107.52v-160.768h115.712c20.48 0 33.792 2.048 41.984 4.096 14.336 2.048 26.624 7.168 35.84 13.312s17.408 14.336 23.552 26.624c6.144 11.264 9.216 24.576 9.216 38.912 0 17.408-4.096 31.744-13.312 45.056-9.216 12.288-21.504 21.504-36.864 26.624zM575.488 574.976c15.36 4.096 27.648 13.312 35.84 23.552 7.168 11.264 11.264 25.6 11.264 41.984 0 15.36-3.072 28.672-11.264 40.96-7.168 11.264-17.408 19.456-31.744 24.576-13.312 4.096-37.888 6.144-70.656 6.144h-93.184v-144.384h100.352c27.648 0 47.104 3.072 59.392 7.168zM935.936 830.976c0 62.464-50.176 112.64-112.64 112.64h-622.592c-62.464 0-112.64-50.176-112.64-112.64v-621.568c0-62.464 50.176-113.664 112.64-113.664h622.592c62.464 0 112.64 51.2 112.64 113.664v621.568zM692.224 374.272c-9.216-19.456-20.48-33.792-33.792-44.032s-30.72-19.456-51.2-24.576c-20.48-5.12-46.080-9.216-75.776-9.216h-179.2v472.064h176.128c35.84 0 64.512-5.12 86.016-15.36 21.504-9.216 38.912-23.552 51.2-43.008 12.288-20.48 18.432-40.96 18.432-62.464 0-19.456-6.144-38.912-16.384-56.32-11.264-17.408-27.648-31.744-49.152-43.008 28.672-8.192 50.176-22.528 65.536-41.984 15.36-20.48 22.528-44.032 22.528-71.68 0-21.504-5.12-41.984-14.336-60.416z" />
<glyph unicode="&#xe816;" glyph-name="bootstrap" d="M605.184 435.712c-18.432 6.144-45.056 4.096-79.872 4.096h-141.312v-183.296h150.528c23.552 0 39.936 2.048 50.176 4.096 16.384 3.072 30.72 8.192 41.984 15.36s20.48 17.408 27.648 31.744c7.168 13.312 11.264 28.672 11.264 46.080 0 20.48-5.12 36.864-16.384 51.2-10.24 15.36-24.576 24.576-44.032 30.72zM586.752 519.68c18.432 5.12 31.744 14.336 40.96 27.648 10.24 12.288 14.336 28.672 14.336 48.128 0 18.432-4.096 34.816-13.312 48.128s-20.48 19.456-36.864 24.576c-16.384 5.12-45.056 4.096-83.968 4.096h-123.904v-159.744h133.12c31.744 0 55.296 3.072 69.632 7.168zM1007.616 811.52c0 72.704-59.392 132.096-132.096 132.096h-734.208c-73.728 0-133.12-59.392-133.12-132.096v-734.208c0-73.728 59.392-133.12 133.12-133.12h734.208c72.704 0 132.096 59.392 132.096 133.12v734.208zM723.968 282.112c-10.24-22.528-23.552-38.912-39.936-51.2s-35.84-22.528-60.416-28.672c-24.576-6.144-53.248-10.24-89.088-10.24h-222.208v551.936h219.136c41.984 0 75.776-5.12 101.376-16.384 25.6-10.24 45.056-27.648 59.392-50.176 14.336-23.552 21.504-48.128 21.504-72.704 0-23.552-6.144-46.080-18.432-66.56-13.312-21.504-32.768-37.888-58.368-50.176 33.792-10.24 59.392-26.624 76.8-50.176 18.432-23.552 26.624-51.2 26.624-83.968 0-25.6-5.12-49.152-16.384-71.68z" />
<glyph unicode="&#xe817;" glyph-name="atom-wordmark" d="M397.312 534.016h9.216l65.536-172.032h-8.192l-22.528 58.368h-79.872l-22.528-58.368h-8.192l66.56 172.032zM439.296 427.52l-37.888 97.28-36.864-97.28h74.752zM542.72 526.848h-53.248v7.168h115.712v-7.168h-54.272v-164.864h-8.192v164.864zM661.504 511.488c13.312 17.408 32.768 26.624 58.368 26.624s45.056-9.216 58.368-26.624c12.288-16.384 18.432-37.888 18.432-63.488 0-26.624-6.144-48.128-18.432-63.488-13.312-17.408-32.768-26.624-58.368-26.624s-45.056 9.216-58.368 26.624c-11.264 15.36-17.408 36.864-17.408 63.488 0 25.6 6.144 47.104 17.408 63.488zM667.648 389.632c12.288-16.384 29.696-24.576 52.224-24.576 23.552 0 40.96 8.192 53.248 24.576 10.24 15.36 15.36 33.792 15.36 58.368 0 23.552-5.12 43.008-16.384 57.344-11.264 17.408-28.672 25.6-52.224 25.6s-39.936-8.192-52.224-25.6c-10.24-14.336-15.36-33.792-15.36-57.344s5.12-43.008 15.36-58.368zM852.992 534.016h11.264l63.488-120.832 60.416 120.832h11.264v-172.032h-7.168v161.792l-62.464-120.832h-5.12l-64.512 120.832v-161.792h-7.168v172.032zM105.472 441.856l-4.096-9.216c-7.168-15.36-13.312-30.72-16.384-47.104-1.024-9.216-2.048-18.432 0-27.648 2.048-8.192 6.144-12.288 13.312-12.288 4.096 0 7.168 0 10.24 1.024 8.192 2.048 15.36 7.168 22.528 12.288 1.024 1.024 3.072 1.024 5.12 1.024 4.096-2.048 5.12-7.168 2.048-9.216-11.264-8.192-23.552-15.36-37.888-16.384-12.288 0-20.48 6.144-24.576 18.432-3.072 8.192-3.072 16.384-2.048 25.6 3.072 26.624 13.312 50.176 25.6 73.728 1.024 2.048 1.024 3.072 0 5.12-3.072 9.216-6.144 17.408-8.192 26.624-1.024 2.048-1.024 2.048-3.072 2.048-12.288-3.072-23.552-6.144-34.816-12.288-4.096-2.048-7.168-5.12-11.264-9.216-5.12-5.12-5.12-11.264-1.024-18.432 4.096-5.12 9.216-9.216 15.36-13.312l5.12-3.072c3.072-1.024 4.096-4.096 3.072-7.168-2.048-2.048-5.12-3.072-7.168-2.048-8.192 4.096-16.384 9.216-22.528 16.384-3.072 4.096-6.144 9.216-7.168 14.336-1.024 7.168 1.024 13.312 5.12 19.456 5.12 5.12 10.24 9.216 16.384 13.312 11.264 5.12 23.552 9.216 35.84 12.288h3.072c-1.024 4.096-2.048 7.168-2.048 10.24-2.048 12.288-3.072 25.6 0 38.912 1.024 5.12 3.072 10.24 7.168 14.336 7.168 8.192 16.384 10.24 25.6 7.168 10.24-2.048 19.456-8.192 26.624-14.336 2.048-2.048 3.072-5.12 1.024-7.168s-5.12-2.048-7.168-1.024c-4.096 3.072-8.192 6.144-12.288 8.192-5.12 3.072-10.24 5.12-15.36 5.12s-8.192-2.048-11.264-6.144c-3.072-4.096-4.096-10.24-5.12-15.36-1.024-12.288 0-24.576 3.072-35.84 0-1.024 0-2.048 2.048-2.048 9.216 1.024 18.432 2.048 27.648 3.072 2.048 0 4.096 1.024 5.12 2.048 12.288 16.384 25.6 30.72 41.984 43.008 9.216 6.144 18.432 12.288 28.672 15.36 7.168 2.048 14.336 3.072 20.48 0 9.216-3.072 13.312-9.216 16.384-17.408 2.048-9.216 2.048-18.432 1.024-26.624-1.024-3.072-1.024-5.12-1.024-7.168-1.024-3.072-3.072-5.12-6.144-4.096-3.072 0-5.12 2.048-5.12 5.12 1.024 4.096 2.048 9.216 2.048 13.312 0 5.12 0 10.24-1.024 15.36-2.048 10.24-9.216 14.336-20.48 12.288-8.192-2.048-14.336-6.144-21.504-10.24-14.336-9.216-25.6-20.48-36.864-32.768-2.048-2.048-4.096-5.12-6.144-7.168v-1.024h3.072c27.648 0 56.32-3.072 82.944-11.264 13.312-4.096 25.6-8.192 36.864-15.36 6.144-4.096 12.288-8.192 16.384-14.336 9.216-11.264 8.192-24.576-2.048-34.816-7.168-7.168-15.36-12.288-24.576-15.36-3.072-1.024-6.144 0-7.168 3.072-1.024 2.048 0 5.12 3.072 7.168 4.096 2.048 9.216 3.072 12.288 6.144 4.096 2.048 7.168 4.096 9.216 7.168 6.144 6.144 6.144 12.288 1.024 19.456-3.072 5.12-8.192 8.192-13.312 11.264-12.288 8.192-26.624 13.312-40.96 17.408-15.36 4.096-30.72 6.144-46.080 7.168-12.288 1.024-24.576 1.024-36.864 2.048-2.048 0-3.072 0-4.096-2.048-7.168-11.264-14.336-22.528-21.504-33.792-1.024-1.024-1.024-2.048-1.024-3.072 12.288-28.672 27.648-56.32 48.128-79.872 9.216-10.24 18.432-19.456 29.696-26.624 5.12-4.096 11.264-6.144 17.408-7.168 6.144 0 10.24 2.048 13.312 7.168s4.096 10.24 4.096 15.36c2.048 17.408-2.048 33.792-6.144 50.176-4.096 17.408-11.264 32.768-18.432 49.152-1.024 1.024-1.024 2.048-1.024 4.096s2.048 4.096 4.096 4.096c2.048 1.024 5.12 0 6.144-3.072 2.048-5.12 5.12-11.264 7.168-17.408 8.192-17.408 14.336-35.84 17.408-55.296 2.048-14.336 3.072-27.648 0-40.96-1.024-3.072-2.048-6.144-3.072-9.216-5.12-11.264-16.384-16.384-28.672-13.312-10.24 2.048-18.432 7.168-26.624 13.312-14.336 11.264-26.624 25.6-37.888 40.96-12.288 17.408-22.528 35.84-30.72 55.296l-2.048 3.072zM100.352 487.936l7.168-21.504 15.36 23.552-22.528-2.048zM159.744 432.64c-8.192 0-15.36 7.168-14.336 15.36 0 8.192 6.144 15.36 15.36 15.36 8.192 0 15.36-7.168 15.36-15.36s-7.168-15.36-16.384-15.36z" />
<glyph unicode="&#xe818;" glyph-name="atom" d="M309.248 424.448c-7.168-13.312-12.288-24.576-17.408-36.864-26.624-57.344-49.152-115.712-60.416-178.176-6.144-34.816-10.24-69.632-1.024-105.472 8.192-29.696 24.576-45.056 52.224-46.080 12.288-1.024 24.576 2.048 36.864 5.12 30.72 9.216 58.368 25.6 84.992 45.056 6.144 4.096 12.288 7.168 20.48 4.096 14.336-5.12 19.456-24.576 7.168-32.768-43.008-32.768-88.064-60.416-144.384-61.44-45.056-2.048-78.848 22.528-93.184 66.56-11.264 32.768-11.264 65.536-7.168 99.328 11.264 99.328 50.176 190.464 96.256 278.528 4.096 7.168 4.096 13.312 1.024 21.504-11.264 32.768-21.504 66.56-32.768 100.352-2.048 6.144-4.096 8.192-10.24 6.144-46.080-9.216-90.112-21.504-130.048-46.080-16.384-9.216-30.72-20.48-43.008-32.768-20.48-22.528-21.504-46.080-4.096-70.656 14.336-21.504 34.816-36.864 57.344-50.176 6.144-4.096 13.312-7.168 20.48-11.264 10.24-6.144 13.312-18.432 8.192-27.648s-16.384-13.312-26.624-8.192c-30.72 15.36-59.392 34.816-82.944 61.44-14.336 15.36-24.576 33.792-27.648 55.296-4.096 26.624 3.072 50.176 19.456 71.68s38.912 36.864 62.464 50.176c41.984 23.552 87.040 36.864 134.144 47.104 3.072 1.024 6.144 1.024 10.24 2.048-2.048 13.312-4.096 24.576-6.144 36.864-7.168 50.176-11.264 99.328 1.024 148.48 5.12 19.456 12.288 38.912 25.6 54.272 26.624 31.744 61.44 38.912 100.352 28.672 37.888-9.216 70.656-29.696 100.352-55.296 8.192-6.144 8.192-19.456 2.048-27.648-7.168-8.192-18.432-9.216-27.648-2.048-15.36 10.24-30.72 20.48-46.080 29.696-17.408 11.264-36.864 18.432-58.368 18.432-18.432 0-31.744-7.168-41.984-21.504-13.312-18.432-17.408-38.912-19.456-60.416-5.12-46.080 1.024-91.136 9.216-135.168 1.024-5.12 3.072-7.168 8.192-6.144 35.84 3.072 71.68 7.168 108.544 10.24 7.168 0 12.288 3.072 17.408 9.216 47.104 59.392 98.304 114.688 158.72 160.768 33.792 24.576 69.632 47.104 110.592 59.392 25.6 8.192 52.224 10.24 77.824 1.024 31.744-11.264 50.176-35.84 59.392-67.584 10.24-33.792 8.192-67.584 4.096-102.4-1.024-8.192-2.048-17.408-4.096-25.6-2.048-12.288-10.24-18.432-22.528-16.384-11.264 1.024-17.408 9.216-16.384 21.504 1.024 16.384 5.12 32.768 5.12 49.152 0 19.456 0 39.936-4.096 58.368-8.192 39.936-35.84 55.296-75.776 46.080-30.72-6.144-57.344-20.48-82.944-37.888-52.224-33.792-97.28-77.824-139.264-123.904-7.168-9.216-15.36-18.432-22.528-26.624 0-1.024 0-2.048-1.024-4.096h11.264c106.496-1.024 211.968-13.312 315.392-43.008 49.152-14.336 96.256-32.768 140.288-60.416 23.552-14.336 45.056-30.72 61.44-52.224 34.816-45.056 31.744-95.232-8.192-134.144-26.624-27.648-59.392-44.032-94.208-57.344-10.24-4.096-21.504 1.024-24.576 11.264-4.096 10.24 0 20.48 10.24 26.624 16.384 7.168 33.792 14.336 49.152 23.552 12.288 7.168 24.576 17.408 34.816 27.648 20.48 22.528 21.504 48.128 3.072 73.728-13.312 18.432-31.744 32.768-51.2 45.056-48.128 29.696-101.376 49.152-156.672 63.488-56.32 15.36-114.688 25.6-174.080 29.696-46.080 3.072-93.184 4.096-140.288 6.144-7.168 1.024-12.288-1.024-15.36-7.168-27.648-41.984-55.296-84.992-82.944-126.976-2.048-3.072-3.072-9.216-2.048-12.288 47.104-110.592 105.472-214.016 183.296-305.152 32.768-38.912 68.608-74.752 111.616-101.376 20.48-12.288 41.984-23.552 66.56-24.576 22.528-2.048 38.912 7.168 50.176 26.624 10.24 17.408 14.336 37.888 16.384 57.344 6.144 65.536-7.168 129.024-24.576 191.488-17.408 63.488-41.984 124.928-70.656 185.344-2.048 4.096-4.096 10.24-4.096 15.36 1.024 9.216 8.192 16.384 17.408 17.408 8.192 1.024 16.384-3.072 20.48-11.264 10.24-22.528 20.48-44.032 29.696-66.56 29.696-68.608 52.224-138.24 64.512-211.968 9.216-51.2 13.312-103.424 1.024-154.624-3.072-11.264-6.144-23.552-11.264-33.792-20.48-44.032-61.44-64.512-108.544-54.272-38.912 9.216-71.68 28.672-102.4 53.248-55.296 44.032-101.376 98.304-142.336 156.672-46.080 65.536-86.016 136.192-118.784 209.92-1.024 2.048-3.072 5.12-5.12 10.24zM288.768 599.552l25.6-80.896c20.48 30.72 38.912 59.392 59.392 90.112l-84.992-9.216zM516.096 389.632c-32.768 0-58.368 26.624-58.368 58.368 0 32.768 25.6 58.368 58.368 58.368s58.368-26.624 58.368-58.368c0-32.768-25.6-58.368-58.368-58.368z" />
<glyph unicode="&#xe819;" glyph-name="sublimetext" d="M512 67.072h406.528c25.6 0 46.080 15.36 46.080 32.768v81.92c-10.24-11.264-26.624-17.408-46.080-17.408h-813.056c-18.432 0-35.84 6.144-46.080 17.408v-81.92c0-17.408 20.48-31.744 46.080-31.744h406.528v-1.024zM512 5.632h445.44c36.864 0 66.56 21.504 66.56 49.152 0 2.048 0 4.096-1.024 6.144l-67.584 726.016c-3.072 16.384-15.36 30.72-29.696 35.84l51.2-614.4v-108.544c0-24.576-25.6-44.032-58.368-44.032h-813.056c-31.744 0-58.368 19.456-58.368 44.032v108.544l52.224 614.4c-15.36-6.144-27.648-19.456-29.696-35.84l-68.608-726.016c-1.024-2.048-1.024-4.096-1.024-6.144 0-26.624 29.696-49.152 66.56-49.152h445.44zM912.384 834.048l-1.024 13.312c0 1.024 0 1.024 0 2.048l-1.024 3.072c-2.048 21.504-19.456 37.888-46.080 37.888h-704.512c-25.6 0-44.032-16.384-46.080-37.888v-3.072l-1.024-2.048-1.024-13.312-52.224-625.664c0-17.408 20.48-32.768 46.080-32.768h813.056c25.6 0 46.080 15.36 47.104 32.768l-53.248 625.664zM669.696 436.736c-11.264-29.696-36.864-51.2-65.536-64.512-30.72-14.336-65.536-19.456-99.328-19.456-36.864-1.024-72.704 3.072-107.52 11.264-18.432 4.096-36.864 8.192-53.248 16.384-15.36 6.144-27.648 21.504-27.648 37.888 1.024 17.408 13.312 31.744 28.672 37.888 16.384 7.168 32.768 4.096 49.152-2.048 35.84-12.288 73.728-17.408 111.616-16.384 21.504 1.024 59.392 12.288 53.248 46.080-1.024 7.168-7.168 17.408-15.36 24.576-5.12 6.144-17.408 11.264-25.6 13.312-17.408 5.12-35.84 9.216-54.272 12.288-35.84 8.192-55.296 14.336-87.040 33.792-28.672 16.384-33.792 27.648-38.912 53.248-5.12 32.768 11.264 59.392 37.888 78.848 59.392 45.056 115.712 44.032 186.368 30.72 17.408-3.072 37.888-6.144 53.248-15.36s23.552-26.624 16.384-44.032c-5.12-15.36-20.48-18.432-36.864-16.384-18.432 2.048-25.6 6.144-41.984 9.216-35.84 7.168-48.128 12.288-81.92 3.072-13.312-4.096-31.744-17.408-24.576-33.792 5.12-14.336 26.624-18.432 38.912-21.504 34.816-9.216 62.464-20.48 96.256-30.72 32.768-9.216 57.344-26.624 77.824-55.296 17.408-25.6 21.504-60.416 10.24-90.112v1.024z" />
<glyph unicode="&#xe81a;" glyph-name="dot-net-wordmark" d="M322.56 334.336h-13.312v77.824c0 6.144 0 13.312 1.024 21.504v0c-1.024-5.12-3.072-8.192-4.096-11.264l-38.912-88.064h-6.144l-39.936 88.064c-1.024 2.048-2.048 6.144-3.072 11.264v0c0-4.096 0-11.264 0-22.528v-76.8h-12.288v114.688h17.408l34.816-79.872c3.072-6.144 5.12-10.24 6.144-13.312v0c2.048 6.144 4.096 10.24 5.12 14.336l36.864 78.848h16.384v-114.688zM364.544 334.336h-13.312v81.92h13.312v-81.92zM366.592 445.952c0-2.048-1.024-4.096-3.072-6.144-1.024-1.024-3.072-2.048-6.144-2.048-2.048 0-4.096 1.024-5.12 2.048-2.048 2.048-3.072 4.096-3.072 6.144s1.024 4.096 3.072 6.144 3.072 2.048 5.12 2.048c3.072 0 5.12 0 6.144-2.048 2.048-2.048 3.072-4.096 3.072-6.144zM446.464 338.432c-6.144-4.096-14.336-6.144-22.528-6.144-12.288 0-21.504 4.096-28.672 12.288-7.168 7.168-10.24 17.408-10.24 28.672 0 13.312 3.072 24.576 11.264 32.768 7.168 8.192 18.432 12.288 30.72 12.288 7.168 0 13.312-1.024 19.456-4.096v-13.312c-6.144 4.096-12.288 6.144-19.456 6.144-8.192 0-15.36-2.048-20.48-8.192-6.144-6.144-8.192-14.336-8.192-23.552 0-10.24 2.048-17.408 7.168-23.552 5.12-5.12 12.288-8.192 20.48-8.192 7.168 0 14.336 3.072 20.48 7.168v-12.288zM508.928 402.944c-2.048 2.048-6.144 3.072-10.24 3.072-5.12 0-9.216-2.048-13.312-7.168s-6.144-13.312-6.144-22.528v-41.984h-13.312v81.92h13.312v-16.384c2.048 6.144 5.12 10.24 9.216 13.312s8.192 5.12 12.288 5.12c4.096 0 6.144-1.024 8.192-1.024v-14.336zM581.632 375.296c0 10.24-2.048 18.432-6.144 24.576-5.12 5.12-11.264 7.168-19.456 7.168s-15.36-2.048-20.48-7.168c-5.12-6.144-7.168-14.336-7.168-24.576s2.048-17.408 7.168-23.552c5.12-5.12 11.264-8.192 20.48-8.192 8.192 0 15.36 3.072 19.456 8.192 4.096 6.144 6.144 13.312 6.144 23.552zM595.968 376.32c0-13.312-4.096-23.552-11.264-31.744s-17.408-12.288-29.696-12.288c-12.288 0-22.528 4.096-29.696 12.288-7.168 7.168-10.24 17.408-10.24 29.696 0 14.336 4.096 25.6 11.264 33.792 8.192 7.168 17.408 10.24 30.72 10.24 12.288 0 21.504-3.072 28.672-11.264 6.144-7.168 10.24-17.408 10.24-30.72zM660.48 356.864c0-7.168-2.048-12.288-7.168-17.408-5.12-4.096-13.312-7.168-22.528-7.168-8.192 0-14.336 2.048-20.48 5.12v14.336c6.144-5.12 13.312-8.192 21.504-8.192 10.24 0 15.36 4.096 15.36 11.264 0 4.096-1.024 6.144-3.072 8.192-3.072 2.048-7.168 5.12-13.312 8.192-7.168 2.048-12.288 5.12-15.36 9.216-3.072 3.072-5.12 8.192-5.12 14.336 0 7.168 3.072 12.288 8.192 17.408 5.12 4.096 12.288 6.144 20.48 6.144 7.168 0 13.312-1.024 18.432-3.072v-13.312c-6.144 3.072-12.288 5.12-19.456 5.12-4.096 0-7.168-1.024-10.24-3.072-2.048-2.048-4.096-5.12-4.096-8.192s1.024-6.144 4.096-8.192c1.024-2.048 5.12-4.096 12.288-7.168 6.144-3.072 11.264-6.144 14.336-9.216 4.096-3.072 6.144-8.192 6.144-14.336zM741.376 375.296c0 10.24-3.072 18.432-7.168 24.576-5.12 5.12-11.264 7.168-19.456 7.168s-15.36-2.048-19.456-7.168c-5.12-6.144-8.192-14.336-8.192-24.576s3.072-17.408 7.168-23.552c5.12-5.12 12.288-8.192 20.48-8.192s15.36 3.072 19.456 8.192c5.12 6.144 7.168 13.312 7.168 23.552zM754.688 376.32c0-13.312-4.096-23.552-11.264-31.744s-17.408-12.288-29.696-12.288c-12.288 0-22.528 4.096-29.696 12.288-7.168 7.168-10.24 17.408-10.24 29.696 0 14.336 4.096 25.6 12.288 33.792 7.168 7.168 17.408 10.24 29.696 10.24s21.504-3.072 28.672-11.264c6.144-7.168 10.24-17.408 10.24-30.72zM812.032 444.928c-2.048 1.024-5.12 2.048-8.192 2.048-9.216 0-14.336-6.144-14.336-17.408v-13.312h19.456v-10.24h-19.456v-71.68h-12.288v71.68h-14.336v10.24h14.336v13.312c0 9.216 2.048 16.384 8.192 21.504 5.12 4.096 10.24 7.168 17.408 7.168 4.096 0 7.168-1.024 9.216-2.048v-11.264zM864.256 335.36c-3.072-2.048-7.168-3.072-12.288-3.072-14.336 0-21.504 8.192-21.504 24.576v48.128h-14.336v11.264h14.336v20.48l13.312 4.096v-24.576h20.48v-11.264h-20.48v-46.080c0-5.12 1.024-9.216 3.072-11.264 1.024-2.048 5.12-4.096 9.216-4.096 3.072 0 6.144 1.024 8.192 3.072v-11.264zM153.6 13.824c0-6.144-2.048-12.288-6.144-16.384-5.12-5.12-10.24-7.168-17.408-7.168-6.144 0-11.264 2.048-16.384 7.168-4.096 4.096-6.144 10.24-6.144 16.384 0 7.168 2.048 12.288 6.144 17.408 5.12 4.096 10.24 6.144 16.384 6.144 7.168 0 12.288-2.048 17.408-6.144 4.096-5.12 6.144-11.264 6.144-17.408zM448.512-4.608h-43.008l-155.648 239.616c-4.096 6.144-7.168 12.288-9.216 19.456h-2.048c2.048-6.144 2.048-20.48 2.048-40.96v-218.112h-34.816v301.056h45.056l151.552-236.544c6.144-9.216 10.24-16.384 12.288-20.48v0c-1.024 9.216-2.048 23.552-2.048 45.056v211.968h35.84v-301.056zM674.816-4.608h-159.744v301.056h152.576v-31.744h-117.76v-100.352h109.568v-31.744h-109.568v-105.472h124.928v-31.744zM917.504 264.704h-87.040v-269.312h-35.84v269.312h-87.040v31.744h209.92v-31.744zM657.408 589.312c3.072 10.24 8.192 19.456 11.264 29.696 18.432 56.32 35.84 113.664 54.272 169.984 7.168 22.528 14.336 44.032 27.648 62.464 21.504 29.696 52.224 45.056 87.040 51.2 14.336 2.048 28.672 3.072 43.008 3.072 41.984 0 83.968 0 125.952 0 2.048 0 4.096 0 7.168-1.024-1.024-2.048-1.024-4.096-2.048-5.12-15.36-27.648-30.72-56.32-47.104-83.968-27.648-48.128-56.32-96.256-84.992-144.384-18.432-29.696-38.912-59.392-61.44-87.040-16.384-20.48-34.816-39.936-57.344-54.272-15.36-10.24-31.744-15.36-50.176-15.36-66.56 0-133.12 0-198.656 0-19.456 0-36.864 7.168-51.2 20.48-20.48 19.456-32.768 44.032-43.008 69.632-17.408 46.080-27.648 95.232-39.936 143.36-5.12 23.552-11.264 46.080-17.408 68.608-1.024 1.024-1.024 2.048-2.048 4.096l-5.12-4.096c-25.6-25.6-48.128-54.272-68.608-83.968-5.12-8.192-7.168-18.432-10.24-28.672-11.264-35.84-22.528-71.68-34.816-107.52-11.264-33.792-32.768-60.416-65.536-76.8-19.456-9.216-39.936-14.336-61.44-14.336-31.744-1.024-63.488-1.024-96.256-1.024-7.168 0-7.168 0-5.12 7.168 13.312 51.2 30.72 100.352 52.224 148.48 22.528 49.152 49.152 96.256 81.92 139.264 22.528 29.696 47.104 56.32 78.848 76.8 15.36 10.24 32.768 18.432 51.2 20.48 4.096 0 7.168 1.024 10.24 1.024 67.584 0 135.168-1.024 202.752 0 36.864 0 63.488-15.36 82.944-44.032 12.288-18.432 21.504-37.888 28.672-58.368 14.336-41.984 23.552-84.992 34.816-126.976 5.12-24.576 12.288-49.152 18.432-73.728 1.024-2.048 1.024-3.072 2.048-5.12h2.048z" />
<glyph unicode="&#xe81b;" glyph-name="dot-net" d="M657.408 332.288c3.072 10.24 8.192 19.456 11.264 29.696 18.432 57.344 35.84 113.664 54.272 171.008 7.168 21.504 14.336 43.008 27.648 61.44 21.504 29.696 52.224 46.080 87.040 51.2 14.336 2.048 28.672 3.072 43.008 3.072 41.984 0 83.968 0 125.952 0 2.048 0 4.096 0 7.168 0-1.024-3.072-1.024-4.096-2.048-6.144-15.36-27.648-30.72-56.32-47.104-83.968-27.648-48.128-56.32-96.256-84.992-143.36-18.432-30.72-38.912-60.416-61.44-88.064-16.384-20.48-34.816-39.936-57.344-54.272-15.36-10.24-31.744-15.36-50.176-15.36-66.56 0-133.12 0-198.656 0-19.456 0-36.864 8.192-51.2 21.504-20.48 18.432-32.768 43.008-43.008 68.608-17.408 46.080-27.648 95.232-39.936 144.384-5.12 22.528-11.264 45.056-17.408 67.584-1.024 1.024-1.024 3.072-2.048 5.12l-5.12-5.12c-25.6-25.6-48.128-53.248-68.608-83.968-5.12-8.192-7.168-18.432-10.24-28.672-11.264-35.84-22.528-71.68-34.816-106.496-11.264-34.816-32.768-61.44-65.536-77.824-19.456-9.216-39.936-14.336-61.44-14.336-31.744-1.024-63.488-1.024-96.256-1.024-7.168 0-7.168 0-5.12 8.192 13.312 50.176 30.72 99.328 52.224 147.456 22.528 49.152 49.152 96.256 81.92 139.264 22.528 29.696 47.104 56.32 78.848 76.8 15.36 10.24 32.768 18.432 51.2 20.48 4.096 1.024 7.168 1.024 10.24 1.024 67.584 0 135.168-1.024 202.752 0 36.864 1.024 63.488-14.336 82.944-44.032 12.288-18.432 21.504-37.888 28.672-58.368 14.336-41.984 23.552-84.992 34.816-126.976 5.12-24.576 12.288-49.152 18.432-73.728 1.024-1.024 1.024-3.072 2.048-5.12h2.048z" />
<glyph unicode="&#xe81c;" glyph-name="angularjs-wordmark" d="M271.36 392.704v104.448h13.312l63.488-83.968v83.968h12.288v-104.448h-13.312l-63.488 84.992v-84.992zM463.872 396.8c-9.216-3.072-17.408-4.096-27.648-4.096-37.888 0-56.32 17.408-56.32 54.272 0 33.792 18.432 50.176 54.272 50.176 10.24 0 20.48-1.024 29.696-4.096v-11.264c-9.216 3.072-18.432 5.12-27.648 5.12-28.672 0-43.008-13.312-43.008-39.936 0-29.696 14.336-44.032 41.984-44.032 4.096 0 9.216 1.024 14.336 2.048v35.84h14.336v-44.032zM484.352 433.664v63.488h14.336v-63.488c0-20.48 9.216-30.72 29.696-30.72s29.696 10.24 29.696 30.72v63.488h13.312v-63.488c0-27.648-14.336-40.96-43.008-40.96s-44.032 13.312-44.032 40.96zM608.256 497.152v-93.184h54.272v-11.264h-67.584v104.448zM681.984 392.704h-14.336l52.224 117.76 51.2-117.76h-14.336l-14.336 32.768h-33.792l4.096 11.264h25.6l-19.456 47.104zM785.408 392.704v104.448h44.032c19.456 0 29.696-8.192 29.696-25.6 0-13.312-9.216-22.528-28.672-29.696l35.84-49.152h-18.432l-32.768 47.104v9.216c19.456 3.072 29.696 10.24 29.696 22.528 0 9.216-5.12 14.336-16.384 14.336h-29.696v-93.184h-13.312zM916.48 497.152v-73.728c0-20.48-12.288-30.72-35.84-30.72v11.264c14.336 0 22.528 6.144 22.528 19.456v73.728h13.312zM940.032 396.8v12.288c11.264-4.096 22.528-6.144 34.816-6.144 18.432 0 27.648 7.168 27.648 20.48 0 10.24-7.168 16.384-20.48 16.384h-13.312c-21.504 0-32.768 9.216-32.768 27.648 0 20.48 14.336 29.696 41.984 29.696 12.288 0 23.552-1.024 33.792-4.096v-12.288c-10.24 4.096-21.504 6.144-33.792 6.144-18.432 0-27.648-6.144-27.648-19.456 0-10.24 6.144-16.384 18.432-16.384h13.312c22.528 0 33.792-9.216 33.792-27.648 0-20.48-13.312-30.72-40.96-30.72-12.288 0-23.552 1.024-34.816 4.096zM129.024 448h25.6l-24.576 53.248-22.528-53.248zM130.048 577.024l-121.856-43.008 19.456-158.72 102.4-56.32 102.4 57.344 19.456 158.72-121.856 41.984zM97.28 424.448l-14.336-36.864-28.672 1.024 74.752 165.888 78.848-166.912h-26.624l-16.384 37.888h-34.816z" />
<glyph unicode="&#xe81d;" glyph-name="angularjs" d="M422.912 448h186.368l-99.328 206.848zM510.976 951.808l-474.112-166.912 74.752-620.544 399.36-220.16 401.408 222.208 74.752 621.568-476.16 163.84zM384 359.936l-57.344-145.408h-108.544l292.864 648.192-1.024 1.024h-1.024v1.024l1.024-1.024h1.024l1.024 2.048v-2.048h-1.024v-1.024l305.152-651.264-104.448 2.048-64.512 148.48h-137.216z" />
<glyph unicode="&#xe81e;" glyph-name="chevron-down" d="M286.72 606.72c-7.261 5.79-16.571 9.29-26.698 9.29-23.753 0-43.008-19.255-43.008-43.008 0-10.127 3.5-19.437 9.357-26.785l-0.067 0.087 256-256c7.762-7.662 18.432-12.395 30.208-12.395s22.446 4.733 30.213 12.399l255.995 255.995c9.974 7.947 16.31 20.093 16.31 33.718 0 23.753-19.255 43.008-43.008 43.008-13.626 0-25.771-6.336-33.651-16.223l-0.067-0.087-226.304-226.304-225.28 226.304z" />
<glyph unicode="&#xe81f;" glyph-name="chevron-up" d="M738.304 290.304c7.261-5.79 16.571-9.29 26.698-9.29 23.753 0 43.008 19.255 43.008 43.008 0 10.127-3.5 19.437-9.357 26.785l0.067-0.087-256 256c-7.762 7.662-18.432 12.395-30.208 12.395s-22.446-4.733-30.213-12.399l-255.995-255.995c-5.79-7.261-9.29-16.571-9.29-26.698 0-23.753 19.255-43.008 43.008-43.008 10.127 0 19.437 3.5 26.785 9.357l-0.087-0.067 225.28 225.28 226.304-225.28z" />
<glyph unicode="&#xe820;" glyph-name="sliders" d="M811.008 235.008v-171.008c3.318-20.737 21.079-36.392 42.496-36.392s39.178 15.655 42.463 36.146l0.033 0.246v171.008h84.992c20.737 3.318 36.392 21.079 36.392 42.496s-15.655 39.178-36.146 42.463l-0.246 0.033h-256c-20.737-3.318-36.392-21.079-36.392-42.496s15.655-39.178 36.146-42.463l0.246-0.033h86.016zM468.992 660.992v171.008c0 23.753 19.255 43.008 43.008 43.008s43.008-19.255 43.008-43.008v0-171.008h84.992c20.737-3.318 36.392-21.079 36.392-42.496s-15.655-39.178-36.146-42.463l-0.246-0.033h-256c-1.989-0.326-4.281-0.512-6.616-0.512-23.753 0-43.008 19.255-43.008 43.008s19.255 43.008 43.008 43.008c2.336 0 4.628-0.186 6.862-0.545l-0.246 0.033h84.992zM128 320v-256c3.318-20.737 21.079-36.392 42.496-36.392s39.178 15.655 42.463 36.146l0.033 0.246v256h86.016c20.737 3.318 36.392 21.079 36.392 42.496s-15.655 39.178-36.146 42.463l-0.246 0.033h-256c-20.737-3.318-36.392-21.079-36.392-42.496s15.655-39.178 36.146-42.463l0.246-0.033h84.992zM212.992 532.992c-3.318-20.737-21.079-36.392-42.496-36.392s-39.178 15.655-42.463 36.146l-0.033 0.246v299.008c-0.326 1.989-0.512 4.281-0.512 6.616 0 23.753 19.255 43.008 43.008 43.008s43.008-19.255 43.008-43.008c0-2.336-0.186-4.628-0.545-6.862l0.033 0.246v-299.008zM555.008 64c0-23.753-19.255-43.008-43.008-43.008s-43.008 19.255-43.008 43.008v0 384c0 23.753 19.255 43.008 43.008 43.008s43.008-19.255 43.008-43.008v0-384zM896 448c-3.318-20.737-21.079-36.392-42.496-36.392s-39.178 15.655-42.463 36.146l-0.033 0.246v384c3.318 20.737 21.079 36.392 42.496 36.392s39.178-15.655 42.463-36.146l0.033-0.246v-384z" />
<glyph unicode="&#xe821;" glyph-name="hard-drive" d="M976.896 467.456c2.598-5.303 4.117-11.539 4.117-18.131 0-0.466-0.008-0.93-0.023-1.392l0.002 0.067v-256c0-70.692-57.308-128-128-128v0h-681.984c-70.692 0-128 57.308-128 128v0 256c0.157 7.15 2.034 13.828 5.232 19.681l-0.112-0.225 146.432 293.888c21.502 42.232 64.65 70.656 114.436 70.656 0.088 0 0.177 0 0.265 0h405.49c49.152 0 93.184-27.648 114.688-70.656l147.456-293.888zM869.376 491.008l-115.712 232.448c-7.258 14.088-21.702 23.556-38.357 23.556-0.195 0-0.39-0.001-0.584-0.004h-405.475c-0.165 0.002-0.36 0.004-0.555 0.004-16.656 0-31.1-9.468-38.245-23.315l-0.113-0.241-115.712-232.448h714.752zM896 404.992h-768v-212.992c0-23.753 19.255-43.008 43.008-43.008v0h681.984c23.753 0 43.008 19.255 43.008 43.008v0 212.992zM256 235.008c-1.989-0.326-4.281-0.512-6.616-0.512-23.753 0-43.008 19.255-43.008 43.008s19.255 43.008 43.008 43.008c2.336 0 4.628-0.186 6.862-0.545l-0.246 0.033c20.737-3.318 36.392-21.079 36.392-42.496s-15.655-39.178-36.146-42.463l-0.246-0.033zM427.008 235.008c-1.989-0.326-4.281-0.512-6.616-0.512-23.753 0-43.008 19.255-43.008 43.008s19.255 43.008 43.008 43.008c2.336 0 4.628-0.186 6.862-0.545l-0.246 0.033c20.737-3.318 36.392-21.079 36.392-42.496s-15.655-39.178-36.146-42.463l-0.246-0.033z" />
<glyph unicode="&#xe822;" glyph-name="star" horiz-adv-x="1025" d="M4.096 557.568q14.336 41.984 58.368 48.128l268.288 39.936 115.712 240.64q19.456 41.984 65.536 41.984t66.56-41.984l115.712-240.64 268.288-39.936q44.032-6.144 57.344-48.128t-15.36-71.68l-196.608-195.584 44.032-270.336q8.192-44.032-29.696-69.632-18.432-14.336-41.984-14.336-18.432 0-35.84 8.192l-232.448 125.952-231.424-125.952q-18.432-8.192-35.84-8.192-24.576 0-41.984 14.336-38.912 25.6-30.72 69.632l44.032 270.336-193.536 195.584q-32.768 29.696-18.432 71.68zM74.752 536.064l195.584-195.584q25.6-26.624 19.456-62.464l-45.056-270.336 231.424 125.952q16.384 8.192 35.84 8.192t35.84-8.192l232.448-125.952-46.080 270.336q-6.144 35.84 20.48 62.464l195.584 195.584-266.24 37.888q-39.936 6.144-55.296 41.984l-116.736 239.616-115.712-239.616q-16.384-35.84-56.32-39.936z" />
<glyph unicode="&#xe823;" glyph-name="align-justify" d="M896 576h-768c-1.989 0.326-4.281 0.512-6.616 0.512-23.753 0-43.008-19.255-43.008-43.008s19.255-43.008 43.008-43.008c2.336 0 4.628 0.186 6.862 0.545l-0.246-0.033h768c20.737 3.318 36.392 21.079 36.392 42.496s-15.655 39.178-36.146 42.463l-0.246 0.033zM896 747.008h-768c-23.753 0-43.008-19.255-43.008-43.008s19.255-43.008 43.008-43.008v0h768c23.753 0 43.008 19.255 43.008 43.008s-19.255 43.008-43.008 43.008v0zM896 404.992h-768c-20.737-3.318-36.392-21.079-36.392-42.496s15.655-39.178 36.146-42.463l0.246-0.033h768c20.737 3.318 36.392 21.079 36.392 42.496s-15.655 39.178-36.146 42.463l-0.246 0.033zM896 235.008h-768c-23.753 0-43.008-19.255-43.008-43.008s19.255-43.008 43.008-43.008v0h768c23.753 0 43.008 19.255 43.008 43.008s-19.255 43.008-43.008 43.008v0z" />
<glyph unicode="&#xe824;" glyph-name="code-slash" horiz-adv-x="1097" d="M352.256 160.256l-28.672-28.672q-5.12-5.12-12.288-5.12t-13.312 5.12l-266.24 267.264q-6.144 5.12-6.144 12.288t6.144 13.312l266.24 266.24q5.12 6.144 13.312 6.144t12.288-6.144l28.672-28.672q6.144-5.12 6.144-13.312t-6.144-12.288l-224.256-225.28 224.256-224.256q6.144-6.144 6.144-13.312t-6.144-13.312zM690.176 770.56l-212.992-738.304q-2.048-7.168-9.216-11.264t-13.312-1.024l-34.816 9.216q-8.192 3.072-11.264 9.216t-2.048 14.336l214.016 737.28q2.048 8.192 8.192 11.264t13.312 2.048l35.84-10.24q7.168-2.048 11.264-9.216t1.024-13.312zM1065.984 398.848l-266.24-267.264q-6.144-5.12-13.312-5.12t-13.312 5.12l-28.672 28.672q-5.12 6.144-5.12 13.312t5.12 13.312l224.256 224.256-224.256 225.28q-5.12 5.12-5.12 12.288t5.12 13.312l28.672 28.672q6.144 6.144 13.312 6.144t13.312-6.144l266.24-266.24q5.12-5.12 5.12-13.312t-5.12-12.288z" />
<glyph unicode="&#xe825;" glyph-name="uikit" d="M754.688 819.712l-175.104-106.496 202.752-114.688v-302.080l-272.384-150.528-266.24 150.528v234.496l-175.104 90.112v-429.056l435.2-256 452.608 256v512l-201.728 115.712zM673.792 861.696l-169.984 98.304-177.152-109.568 172.032-94.208 175.104 105.472z" />
<glyph unicode="&#xe826;" glyph-name="usb" d="M388.096 693.76c-190.464 0-262.144-126.976-279.552-163.84h-84.992l-27.648-163.84h87.040c3.66-36.631 18.959-69.133 42.091-94.326l-0.107 0.118c41.984-46.080 111.616-69.632 204.8-69.632h485.376l19.456 81.92h46.080c88.064 0 143.36 47.104 143.36 119.808 0 21.504-7.168 38.912-17.408 53.248 10.24 15.36 17.408 34.816 17.408 60.416 0 55.296-46.080 92.16-116.736 93.184l19.456 82.944zM636.928 570.88c108.544 0 93.184-81.92 93.184-81.92h-67.584c4.096 24.576-14.336 29.696-29.696 29.696-16.384 0-28.672-7.168-28.672-19.456 0-29.696 114.688-9.216 114.688-92.16 0-36.864-28.672-81.92-108.544-81.92-54.272 0-100.352 22.528-98.304 81.92h69.632c0-11.264 2.048-30.72 33.792-30.72 12.288 0 33.792 6.144 33.792 23.552 0 33.792-113.664 16.384-113.664 93.184 0 43.008 38.912 77.824 101.376 77.824zM282.624 570.88h76.8l-26.624-130.048s-20.48-56.32 24.576-56.32c41.984 0 47.104 52.224 47.104 52.224l29.696 134.144h77.824l-31.744-143.36c0 0-2.048-102.4-128-102.4-107.52 0-107.52 74.752-106.496 81.92 2.048 7.168 36.864 163.84 36.864 163.84zM781.312 570.88h120.832c22.528 0 80.896-6.144 80.896-53.248 0-53.248-50.176-64.512-50.176-64.512s50.176-6.144 50.176-49.152c0-79.872-93.184-78.848-102.4-78.848h-151.552zM840.704 509.44l-8.192-40.96h48.128c1.869 0.121 3.613 0.486 5.256 1.066l-0.136-0.042c2.048 0 4.096 1.024 7.168 3.072v0c1.167 0.625 2.174 1.304 3.103 2.073l-0.031-0.025c3.784 3.39 6.153 8.292 6.153 13.747 0 0.207-0.003 0.414-0.010 0.619l0.001-0.030c0 17.408-18.432 20.48-18.432 20.48zM869.376 427.52c-1.024 0-2.048 0-2.048 0h-44.032l-9.216-40.96h53.248c1.024 0 1.024 0 2.048 0s2.048 0 3.072 0c2.27 0.175 4.365 0.539 6.387 1.079l-0.243-0.055c2.048 1.024 4.096 1.024 5.12 2.048 1.024 0 2.048 0 2.048 0 0.767 0.608 1.44 1.281 2.029 2.023l0.019 0.025c1.169 0.597 2.178 1.278 3.092 2.065l-0.020-0.017c0 0 1.024 1.024 1.024 1.024 0.761 0.896 1.441 1.904 2.005 2.982l0.043 0.090c0 1.024 1.024 2.048 1.024 2.048 1.024 2.048 1.024 5.12 1.024 7.168 0.013 0.263 0.020 0.571 0.020 0.881 0 2.251-0.382 4.413-1.085 6.424l0.042-0.136c0 0-1.024 1.024-1.024 2.048-0.557 1.177-1.242 2.19-2.057 3.082l0.009-0.010c0 0-1.024 1.024-1.024 1.024-0.896 0.711-1.9 1.389-2.955 1.987l-0.117 0.061c-1.024 1.024-1.024 1.024-2.048 1.024 0 1.024-1.024 1.024-2.048 1.024-1.024 1.024-3.072 1.024-5.12 2.048-1.402 0.396-3.136 0.755-4.906 1l-0.214 0.024c-2.048 0-2.048 0-3.072 0 0 0-1.024 0-1.024 0z" />
<glyph unicode="&#xe827;" glyph-name="microsoftexcel" d="M1004.544 827.904h-343.040v-63.488h101.376v-100.352h-101.376v-32.768h101.376v-100.352h-101.376v-32.768h101.376v-95.232h-101.376v-37.888h101.376v-95.232h-101.376v-37.888h101.376v-96.256h-101.376v-69.632h343.040c6.144 1.024 10.24 8.192 14.336 18.432 3.072 11.264 5.12 20.48 5.12 27.648v703.488c0 6.144-2.048 9.216-5.12 10.24-4.096 1.024-8.192 2.048-14.336 2.048zM960.512 135.68h-164.864v96.256h164.864v-96.256zM960.512 269.824h-164.864v95.232h164.864v-95.232zM960.512 402.944h-164.864v95.232h164.864v-95.232zM960.512 530.944h-164.864v100.352h164.864v-100.352zM960.512 664.064h-164.864v100.352h164.864v-100.352zM0 843.264v-793.6l604.16-104.448v1005.568l-604.16-107.52zM358.4 243.2c-2.048 6.144-13.312 32.768-32.768 79.872-19.456 46.080-30.72 73.728-33.792 80.896h-1.024l-64.512-153.6-87.040 6.144 102.4 191.488-94.208 192.512 89.088 4.096 58.368-150.528h1.024l65.536 157.696 91.136 5.12-108.544-207.872 112.64-211.968-98.304 6.144z" />
<glyph unicode="&#xe828;" glyph-name="microsoftpowerpoint" d="M1002.496 788.992h-364.544v-135.168c21.504 16.384 48.128 24.576 78.848 24.576v-132.096h131.072c-1.024-36.864-13.312-68.608-38.912-93.184-24.576-25.6-55.296-38.912-93.184-38.912-28.672 0-54.272 9.216-77.824 25.6v-91.136h286.72v-44.032h-286.72v-55.296h286.72v-44.032h-286.72v-99.328h364.544c14.336 0 21.504 7.168 21.504 22.528v638.976c0 14.336-7.168 21.504-21.504 21.504v0zM737.28 567.808v133.12c36.864 0 68.608-13.312 93.184-37.888 25.6-25.6 37.888-57.344 38.912-95.232h-132.096zM352.256 565.76c-2.048 9.216-6.144 15.36-11.264 20.48-5.12 4.096-12.288 8.192-20.48 10.24-9.216 3.072-19.456 4.096-29.696 4.096l-30.72-1.024v-128h1.024c11.264 0 23.552 0 35.84 0 12.288 1.024 23.552 4.096 33.792 10.24 13.312 9.216 21.504 22.528 24.576 38.912 2.048 16.384 1.024 32.768-3.072 47.104v-2.048zM0 829.952v-765.952l583.68-101.376v970.752l-583.68-103.424zM436.224 484.864c-16.384-37.888-39.936-61.44-72.704-71.68-31.744-10.24-65.536-14.336-103.424-11.264v-146.432l-76.8 9.216v401.408l121.856 6.144c22.528 1.024 45.056-1.024 67.584-8.192 21.504-6.144 38.912-19.456 52.224-38.912 12.288-19.456 19.456-43.008 21.504-68.608 1.024-25.6-2.048-50.176-10.24-71.68z" />
<glyph unicode="&#xe829;" glyph-name="shopping-bag" d="M929.792 729.6c5.545-6.987 8.978-15.871 9.215-25.547l0.001-0.053v-596.992c0-70.692-57.308-128-128-128v0h-598.016c-70.692 0-128 57.308-128 128v0 596.992c0.238 9.729 3.671 18.613 9.284 25.689l-0.068-0.089 128 171.008c7.946 10.017 20.118 16.384 33.776 16.384 0.005 0 0.011 0 0.016 0h511.999c0.005 0 0.010 0 0.016 0 13.659 0 25.83-6.367 33.708-16.295l0.068-0.089 128-171.008zM811.008 747.008l-64.512 84.992h-468.992l-64.512-84.992h598.016zM852.992 660.992h-681.984v-553.984c0-0.004 0-0.008 0-0.012 0-23.393 18.676-42.423 41.931-42.995l0.053-0.001h598.016c23.308 0.573 41.984 19.603 41.984 42.996 0 0.004 0 0.009 0 0.013v-0.001 553.984zM640 532.992c3.318 20.737 21.079 36.392 42.496 36.392s39.178-15.655 42.463-36.146l0.033-0.246c0-117.632-95.36-212.992-212.992-212.992s-212.992 95.36-212.992 212.992v0c-0.326 1.989-0.512 4.281-0.512 6.616 0 23.753 19.255 43.008 43.008 43.008s43.008-19.255 43.008-43.008c0-2.336-0.186-4.628-0.545-6.862l0.033 0.246c0-70.692 57.308-128 128-128s128 57.308 128 128v0z" />
<glyph unicode="&#xe82a;" glyph-name="attention-alt" d="M553.984 406.016v256h-83.968v-256h83.968zM553.984 233.984v86.016h-83.968v-86.016h83.968zM982.016 448l-104.448-117.76 14.336-157.696-153.6-34.816-79.872-136.192-146.432 62.464-146.432-62.464-79.872 134.144-153.6 36.864 14.336 157.696-104.448 117.76 104.448 119.808-14.336 156.672 153.6 33.792 79.872 136.192 146.432-62.464 146.432 62.464 79.872-136.192 153.6-33.792-14.336-158.72z" />
<glyph unicode="&#xe82b;" glyph-name="arrow-up" d="M555.008 107.008v681.984c0 23.753-19.255 43.008-43.008 43.008s-43.008-19.255-43.008-43.008v0-681.984c0-23.753 19.255-43.008 43.008-43.008s43.008 19.255 43.008 43.008v0zM738.304 503.296c7.261-5.79 16.571-9.29 26.698-9.29 23.753 0 43.008 19.255 43.008 43.008 0 10.127-3.5 19.437-9.357 26.785l0.067-0.087-256 256c-7.762 7.662-18.432 12.395-30.208 12.395s-22.446-4.733-30.213-12.399l-255.995-255.995c-5.79-7.261-9.29-16.571-9.29-26.698 0-23.753 19.255-43.008 43.008-43.008 10.127 0 19.437 3.5 26.785 9.357l-0.087-0.067 225.28 225.28 226.304-225.28z" />
<glyph unicode="&#xe82c;" glyph-name="award" d="M305.152 347.648c-81.589 62.944-133.632 160.743-133.632 270.698 0 188.325 152.667 340.992 340.992 340.992s340.992-152.667 340.992-340.992c0-109.955-52.043-207.754-132.839-270.11l-0.793-0.588 48.128-363.52c0.178-1.471 0.28-3.174 0.28-4.901 0-23.753-19.255-43.008-43.008-43.008-8.032 0-15.549 2.202-21.981 6.034l0.197-0.109-191.488 114.688-191.488-114.688c-6.235-3.724-13.753-5.925-21.784-5.925-23.753 0-43.008 19.255-43.008 43.008 0 1.727 0.102 3.43 0.3 5.104l-0.020-0.203 49.152 363.52zM385.024 301.568l-32.768-240.64 138.24 81.92c6.29 3.809 13.89 6.062 22.016 6.062s15.726-2.254 22.209-6.17l-0.193 0.108 137.216-81.92-32.768 240.64c-37.562-15.548-81.182-24.576-126.91-24.576-0.023 0-0.046 0-0.069 0h0.003c-0.020 0-0.043 0-0.066 0-45.728 0-89.348 9.028-129.174 25.4l2.264-0.824zM512 363.008c141.385 0 256 114.615 256 256s-114.615 256-256 256v0c-141.385 0-256-114.615-256-256s114.615-256 256-256v0z" />
<glyph unicode="&#xe82d;" glyph-name="new-soild" d="M874.496 361.984v214.016h-52.224v-191.488h-48.128v149.504h-54.272v-149.504h-48.128v191.488h-53.248v-214.016q0-18.432 12.288-29.696t31.744-12.288h169.984q17.408 0 29.696 12.288t12.288 29.696zM576.512 521.728v54.272h-169.984v-256h169.984v54.272h-106.496v46.080h106.496v53.248h-106.496v48.128h106.496zM362.496 320v256h-52.224v-149.504l-108.544 149.504h-51.2v-256h51.2v150.528l110.592-150.528h50.176zM854.016 790.016q35.84 0 60.416-24.576t23.552-61.44v-512q0-35.84-23.552-61.44t-60.416-24.576h-684.032q-35.84 0-60.416 24.576t-23.552 61.44v512q0 35.84 23.552 61.44t60.416 24.576h684.032z" />
<glyph unicode="&#xe82e;" glyph-name="at-sign" d="M724.992 448v-43.008c0-47.223 38.281-85.504 85.504-85.504s85.504 38.281 85.504 85.504v0 43.008c-0.16 211.957-172.021 383.72-384 383.72-212.077 0-384-171.923-384-384s171.923-384 384-384c88.236 0 169.521 29.76 234.365 79.791l-0.893-0.663c7.755 7.624 18.4 12.331 30.143 12.331 23.753 0 43.008-19.255 43.008-43.008 0-15.6-8.306-29.26-20.736-36.799l-0.191-0.108c-78.206-60.551-177.687-97.062-285.695-97.062-259.017 0-468.992 209.975-468.992 468.992s209.975 468.992 468.992 468.992c258.734 0 468.532-209.516 468.991-468.142v-43.052c-1.319-93.434-77.369-168.669-170.992-168.669-56.612 0-106.799 27.509-137.922 69.889l-0.334 0.476c-39.218-44.315-96.235-72.111-159.744-72.111-117.632 0-212.992 95.36-212.992 212.992s95.36 212.992 212.992 212.992c117.481 0 212.747-95.115 212.992-212.538v-0.023zM512 320c70.692 0 128 57.308 128 128s-57.308 128-128 128v0c-70.692 0-128-57.308-128-128s57.308-128 128-128v0z" />
<glyph unicode="&#xe82f;" glyph-name="home" d="M101.376 609.792l384 299.008c7.248 5.754 16.53 9.232 26.624 9.232s19.376-3.477 26.713-9.3l-0.089 0.068 384-299.008c10.017-7.946 16.384-20.118 16.384-33.776 0-0.005 0-0.011 0-0.016v0.001-468.992c0-70.692-57.308-128-128-128v0h-598.016c-70.692 0-128 57.308-128 128v0 468.992c0 0.005 0 0.010 0 0.016 0 13.659 6.367 25.83 16.295 33.708l0.089 0.068zM683.008 64h128c23.308 0.573 41.984 19.603 41.984 42.996 0 0.004 0 0.009 0 0.013v-0.001 448.512l-340.992 265.216-340.992-265.216v-448.512c0-0.004 0-0.008 0-0.012 0-23.393 18.676-42.423 41.931-42.995l0.053-0.001h128v384c0 23.753 19.255 43.008 43.008 43.008v0h256c23.753 0 43.008-19.255 43.008-43.008v0-384zM427.008 64h169.984v340.992h-169.984v-340.992z" />
<glyph unicode="&#xe830;" glyph-name="bell" d="M768 363.008v212.992c0 141.385-114.615 256-256 256s-256-114.615-256-256v0-212.992c0-31.744-8.192-60.416-22.528-86.016h557.056c-14.169 24.281-22.534 53.452-22.534 84.576 0 0.506 0.002 1.012 0.007 1.517l-0.001-0.077zM939.008 192h-854.016c-56.32 0-56.32 84.992 0 84.992 0.306-0.004 0.668-0.006 1.030-0.006 46.94 0 84.992 38.052 84.992 84.992 0 0.362-0.002 0.724-0.007 1.085l0.001-0.055v212.992c0 188.325 152.667 340.992 340.992 340.992s340.992-152.667 340.992-340.992v0-212.992c-0.004-0.306-0.006-0.668-0.006-1.030 0-46.94 38.052-84.992 84.992-84.992 0.362 0 0.724 0.002 1.085 0.007l-0.055-0.001c56.32 0 56.32-84.992 0-84.992zM548.864 85.504c-7.656-12.581-21.294-20.855-36.864-20.855s-29.208 8.274-36.757 20.666l-0.107 0.19c-7.938 10.322-20.291 16.908-34.183 16.908-23.753 0-43.008-19.255-43.008-43.008 0-6.11 1.274-11.922 3.571-17.185l-0.108 0.277c22.602-38.279 63.645-63.553 110.592-63.553s87.99 25.274 110.266 62.958l0.326 0.595c2.189 4.986 3.463 10.798 3.463 16.908 0 23.753-19.255 43.008-43.008 43.008-13.892 0-26.245-6.586-34.108-16.807l-0.075-0.101z" />
<glyph unicode="&#xe831;" glyph-name="git-commit" d="M720.896 406.016c-20.102-98.421-105.974-171.422-208.896-171.422s-188.794 73.001-208.661 170.049l-0.235 1.373c-1.043-0.337-2.419-0.691-3.819-0.977l-0.277-0.047h-253.952c-23.753 0-43.008 19.255-43.008 43.008s19.255 43.008 43.008 43.008v0h253.952c1.024 0 2.048 0 4.096 0 20.102 98.421 105.974 171.422 208.896 171.422s188.794-73.001 208.661-170.049l0.235-1.373c2.048 0 3.072 0 5.12 0h253.952c23.753 0 43.008-19.255 43.008-43.008s-19.255-43.008-43.008-43.008v0h-253.952c-2.048 0-3.072 0-5.12 1.024zM512 320c70.692 0 128 57.308 128 128s-57.308 128-128 128v0c-70.692 0-128-57.308-128-128s57.308-128 128-128v0z" />
<glyph unicode="&#xe832;" glyph-name="git-branch" d="M421.888 151.040c-19.229-74.962-86.192-129.48-165.889-129.48-94.245 0-170.684 76.239-171.007 170.409v0.031c0.308 78.895 53.995 145.166 126.805 164.593l1.195 0.271v475.136c0 23.753 19.255 43.008 43.008 43.008s43.008-19.255 43.008-43.008v0-475.136c59.241-15.727 105.146-60.953 121.562-118.602l0.294-1.206c158.971 18.208 283.872 143.109 301.933 300.5l0.147 1.58c-72.986 20.59-125.583 86.585-125.583 164.864 0 94.315 76.353 170.798 170.619 171.008h0.020c94.2-0.323 170.44-76.762 170.44-171.007 0-79.697-54.518-146.66-128.294-165.63l-1.186-0.259c-19.031-205.665-181.407-368.041-385.387-386.946l-1.685-0.126zM768 619.008c46.94 0 84.992 38.052 84.992 84.992s-38.052 84.992-84.992 84.992v0c-46.94 0-84.992-38.052-84.992-84.992s38.052-84.992 84.992-84.992v0zM256 107.008c46.94 0 84.992 38.052 84.992 84.992s-38.052 84.992-84.992 84.992v0c-46.94 0-84.992-38.052-84.992-84.992s38.052-84.992 84.992-84.992v0z" />
<glyph unicode="&#xe833;" glyph-name="git-pull-request" d="M212.992 539.136c-73.015 20.57-125.64 86.58-125.64 164.88 0 93.615 75.224 169.661 168.523 170.99l0.125 0.001c93.425-1.33 168.648-77.376 168.648-170.992 0-78.301-52.625-144.31-124.435-164.589l-1.205-0.291v-475.136c0-23.753-19.255-43.008-43.008-43.008s-43.008 19.255-43.008 43.008v0 475.136zM724.992 356.864v262.144c-0.557 22.959-19.025 41.426-41.931 41.983l-0.053 0.001h-128c-23.753 0-43.008 19.255-43.008 43.008s19.255 43.008 43.008 43.008v0h128c70.692 0 128-57.308 128-128v0-262.144c73.015-20.57 125.64-86.58 125.64-164.88 0-93.615-75.224-169.661-168.523-170.99l-0.125-0.001c-93.425 1.33-168.648 77.376-168.648 170.992 0 78.301 52.625 144.31 124.435 164.589l1.205 0.291zM768 107.008c46.94 0 84.992 38.052 84.992 84.992s-38.052 84.992-84.992 84.992v0c-46.94 0-84.992-38.052-84.992-84.992s38.052-84.992 84.992-84.992v0zM256 619.008c46.94 0 84.992 38.052 84.992 84.992s-38.052 84.992-84.992 84.992v0c-46.94 0-84.992-38.052-84.992-84.992s38.052-84.992 84.992-84.992v0z" />
</font>
</defs>
</svg>
