<?xml version="1.0" encoding="utf-8"?>
<!-- Generator: Adobe Illustrator 24.0.2, SVG Export Plug-In . SVG Version: 6.00 Build 0)  -->
<svg version="1.1" id="레이어_1" xmlns="http://www.w3.org/2000/svg" xmlns:xlink="http://www.w3.org/1999/xlink" x="0px"
	 y="0px" viewBox="0 0 512 512" style="enable-background:new 0 0 512 512;" xml:space="preserve">
<style type="text/css">
	.st0{opacity:0.4;}
</style>
<path class="st0" d="M493,1H19C8.5,1,0,10.2,0,21.5S8.5,42,19,42h474c10.5,0,19-9.2,19-20.5S503.5,1,493,1z"/>
<path d="M297.4,82.5c-23.4-23.3-61.4-23.3-84.8,0L80.1,214.9c-14.4,14.4-18.6,35.8-10.8,54.7c7.8,18.8,25.9,30.9,46.1,30.9H236V322
	v63v21v66c0,11,8.9,20,20,20c11,0,20-8.9,20-20v-66v-21v-63v-21.5c0-22-17.9-39.9-39.9-39.9H115.4c-6,0-8.4-4.4-9.2-6.3
	c-0.8-1.9-2.2-6.9,2.1-11.2l132.6-132.4c7.8-7.8,20.5-7.8,28.3,0l132.6,132.4c4.3,4.3,2.9,9.2,2.1,11.2c-0.8,1.9-3.2,6.3-9.2,6.3
	h-42.9c-11,0-20,8.9-20,20c0,11,8.9,20,20,20h42.9c20.2,0,38.3-12.1,46.1-30.9c7.8-18.9,3.6-40.3-10.8-54.7L297.4,82.5z"/>
</svg>
